<?xml version="1.0" encoding="utf-8"?>
<!-- Generator: Adobe Illustrator 18.1.1, SVG Export Plug-In . SVG Version: 6.00 Build 0)  -->
<svg version="1.1" id="Layer_1" xmlns="http://www.w3.org/2000/svg" xmlns:xlink="http://www.w3.org/1999/xlink" x="0px" y="0px"
	 width="42.8px" height="36px" viewBox="0 0 42.8 36" enable-background="new 0 0 42.8 36" xml:space="preserve">
<path fill="#FFFFFF" d="M6.8,10.3"/>
<path fill="#FFFFFF" d="M20.9,0.2L0.3,18.6C-0.3,19.1,0.1,20,0.8,20h5.8c0.4,0,0.8,0.4,0.8,0.8v14.3c0,0.4,0.4,0.8,0.8,0.8h7.4
	c0.4,0,0.8-0.4,0.8-0.8v-7.7c0-0.4,0.4-0.8,0.8-0.8h8.3c0.4,0,0.8,0.4,0.8,0.8v7.7c0,0.4,0.4,0.8,0.8,0.8h7.4c0.4,0,0.8-0.4,0.8-0.8
	V20.8c0-0.4,0.4-0.8,0.8-0.8H42c0.7,0,1.1-0.9,0.5-1.4L21.9,0.2C21.6-0.1,21.2-0.1,20.9,0.2z"/>
</svg>
