<?xml version="1.0" encoding="utf-8"?>
<svg version="1.1" id="Layer_1" xmlns="http://www.w3.org/2000/svg" xmlns:xlink="http://www.w3.org/1999/xlink" x="0px" y="0px"
	 width="40px" height="40px" viewBox="0 0 40 40" enable-background="new 0 0 40 40" xml:space="preserve">
<g>
	<path fill="#FFFFFF" d="M20.7,20.1c0.1,0,0.3-0.1,0.4-0.1c-0.3-0.6-0.5-1.2-0.8-1.8c-5.2,1.6-10.2,1.5-10.7,1.5c0,0.1,0,0.2,0,0.3
		c0,2.7,1,5.1,2.7,6.9C12.5,26.6,15.4,21.8,20.7,20.1z"/>
	<path fill="#FFFFFF" d="M21.8,21.7c-5.9,2-8,6.1-8.2,6.5c1.8,1.4,4,2.2,6.4,2.2c1.4,0,2.8-0.3,4.1-0.8
		C23.9,28.7,23.3,25.5,21.8,21.7C21.8,21.7,21.8,21.7,21.8,21.7z"/>
	<path fill="#FFFFFF" d="M19.4,16.6c-1.7-3.1-3.6-5.6-3.9-6c-2.9,1.4-5.1,4.1-5.8,7.3C10.3,17.9,14.6,17.9,19.4,16.6z"/>
	<path fill="#FFFFFF" d="M26.9,12.2c-1.8-1.6-4.2-2.6-6.9-2.6c-0.8,0-1.7,0.1-2.4,0.3c0.3,0.4,2.2,3,3.9,6.1
		C25.1,14.6,26.7,12.5,26.9,12.2z"/>
	<path fill="#FFFFFF" d="M23.8,21.2c1.4,3.7,1.9,6.8,2,7.4c2.3-1.6,4-4.1,4.5-7C29.9,21.6,27,20.7,23.8,21.2z"/>
	<path fill="#FFFFFF" d="M22.2,17.5c0.2,0.5,0.5,1,0.7,1.5c0.1,0.2,0.2,0.4,0.2,0.5c3.5-0.4,6.9,0.3,7.2,0.3c0-2.5-0.9-4.7-2.3-6.5
		C27.8,13.7,26.1,16,22.2,17.5z"/>
	<path fill="#FFFFFF" d="M20,0C9,0,0,9,0,20c0,11,9,20,20,20c11,0,20-9,20-20C40,9,31,0,20,0z M20,32.2c-6.7,0-12.2-5.5-12.2-12.2
		S13.3,7.8,20,7.8c6.7,0,12.2,5.5,12.2,12.2C32.2,26.7,26.7,32.2,20,32.2z"/>
</g>

</svg>
