<?xml version="1.0" encoding="utf-8"?>
<svg version="1.1" id="Layer_1" xmlns="http://www.w3.org/2000/svg" xmlns:xlink="http://www.w3.org/1999/xlink" x="0px" y="0px"
	 width="40px" height="40px" viewBox="0 0 40 40" enable-background="new 0 0 40 40" xml:space="preserve">
<path fill="#ffffff" d="M20,0C9,0,0,9,0,20c0,11,9,20,20,20s20-9,20-20C40,9,31,0,20,0z M15,28.1h-4V16.2h4V28.1z M13.1,14.6
	L13.1,14.6c-1.4,0-2.2-0.9-2.2-2.1c0-1.2,0.9-2.1,2.2-2.1s2.2,0.9,2.2,2.1C15.3,13.7,14.4,14.6,13.1,14.6z M29.3,28.1L29.3,28.1
	l-4,0v-6.4c0-1.6-0.6-2.7-2-2.7c-1.1,0-1.7,0.7-2,1.4c-0.1,0.3-0.1,0.6-0.1,1v6.7h-4c0,0,0.1-10.8,0-11.9h4v1.7c0.5-0.8,1.5-2,3.6-2
	c2.6,0,4.6,1.7,4.6,5.4V28.1z"/>
</svg>
