<?xml version="1.0" encoding="utf-8"?>
<svg version="1.1" id="Layer_1" xmlns="http://www.w3.org/2000/svg" xmlns:xlink="http://www.w3.org/1999/xlink" x="0px" y="0px"
	 width="40px" height="40px" viewBox="0 0 40 40" enable-background="new 0 0 40 40" xml:space="preserve">
<path fill="#FFFFFF" d="M20,0C9,0,0,9,0,20c0,11,9,20,20,20s20-9,20-20C40,9,31,0,20,0z M28,19.7c0,0-0.2,0.9-0.3,0.9
	c-0.9,1.8-2.6,2.5-5.4,2.8c0.9,0.6,1.2,1.3,1.2,3.2c0,1.9,0,2.2,0,2.6c0,0.7,1.1,1.1,1.1,1.3c0,0.2-0.9,0.2-1.3,0.1
	c-1.1-0.4-1-1.3-1-1.3l0-2.6c0,0,0.1-1.4-0.4-1.4v4.2c0,0.9,0.7,1.2,0.7,1.5c0,0.6-1.2-0.1-1.6-0.4c-0.6-0.6-0.5-1.7-0.5-2.7
	c0-0.9,0-2.9,0-2.9l-0.4,0c0,0,0.2,4.3-0.2,5.1c-0.5,1-1.9,1.3-1.9,0.9c0-0.3,0.3-0.2,0.5-0.9c0.2-0.6,0.1-4.9,0.1-4.9
	S18,25.5,18,26.3c0,0.4,0,2.5,0,3.1c0,0.8-1.2,1.3-1.7,1.3c-0.3,0-0.6,0-0.6-0.2c0-0.4,1.1-0.6,1.1-1.4c0-0.7,0-2.4,0-2.4
	s-0.5,0.1-1.3,0.1c-1.9,0-2.5-1.2-2.8-1.9c-0.4-0.9-0.9-1.3-1.4-1.6c-0.3-0.2-0.4-0.4,0-0.5c1.7-0.3,2.1,1.9,3.3,2.2
	c0.8,0.3,1.8,0.1,2.4-0.2c0.1-0.7,0.6-1.3,1-1.6c-2.9-0.3-4.6-1.3-5.5-2.8c0,0-0.4-0.9-0.4-0.9c-0.3-0.8-0.4-1.7-0.4-2.7
	c0-1.8,0.6-2.5,1.4-3.5c-0.6-2.1,0.2-3.5,0.2-3.5s1.2-0.3,3.6,1.4c1.3-0.5,4.7-0.6,6.3-0.1c1-0.6,2.8-1.6,3.5-1.3
	c0.2,0.3,0.6,1.2,0.3,3.2c0.2,0.4,1.5,1.4,1.5,4C28.3,18.2,28.2,19,28,19.7z"/>
</svg>
