<?xml version="1.0" encoding="utf-8"?>
<svg version="1.1" id="Layer_1" xmlns="http://www.w3.org/2000/svg" xmlns:xlink="http://www.w3.org/1999/xlink" x="0px" y="0px"
	 width="40px" height="40px" viewBox="0 0 40 40" enable-background="new 0 0 40 40" xml:space="preserve">
<path fill="#FFFFFF" d="M20,0C9,0,0,9,0,20c0,11,9,20,20,20c11,0,20-9,20-20C40,9,31,0,20,0z M23.9,20.5h-3c0,4.8,0,10.6,0,10.6
	h-4.4c0,0,0-5.8,0-10.6h-2.1v-3.8h2.1v-2.4c0-1.7,0.8-4.5,4.5-4.5l3.3,0v3.6c0,0-2,0-2.4,0c-0.4,0-0.9,0.2-0.9,1v2.2h3.4L23.9,20.5z
	"/>
</svg>
