<?xml version="1.0" encoding="utf-8"?>
<svg version="1.1" id="Layer_1" xmlns="http://www.w3.org/2000/svg" xmlns:xlink="http://www.w3.org/1999/xlink" x="0px" y="0px"
	 width="40px" height="40px" viewBox="0 0 40 40" enable-background="new 0 0 40 40" xml:space="preserve">
<g>
	<path fill="#ffffff" d="M27.5,18.8c-2.3,0-2.6,2.3-2.6,2.3h4.9C29.8,21.1,29.8,18.8,27.5,18.8z"/>
	<path fill="#FFFFFF" d="M17.5,17.1c0-1.5-1-1.5-1-1.5h-0.6h-3.8v3.3h4C16.9,18.8,17.5,18.6,17.5,17.1z"/>
	<path fill="#FFFFFF" d="M16.5,21.1h-4.3v4H16c0.1,0,0.2,0,0.3,0c0.6,0,1.8-0.2,1.8-1.9C18,21.1,16.5,21.1,16.5,21.1z"/>
	<path fill="#FFFFFF" d="M20,0C9,0,0,9,0,20c0,11,9,20,20,20c11,0,20-9,20-20C40,9,31,0,20,0z M24.3,13.8h6.1v1.8h-6.1V13.8z
		 M21.2,23.3c0,4.5-4.7,4.4-4.7,4.4h-4.3H12H8.8V12.9H12h0.1h4.3c2.3,0,4.2,1.3,4.2,3.9s-2.3,2.8-2.3,2.8
		C21.4,19.7,21.2,23.3,21.2,23.3z M32.6,23.1h-7.7c0,2.7,2.6,2.6,2.6,2.6c2.5,0,2.4-1.6,2.4-1.6h2.6c0,4.2-5.1,3.9-5.1,3.9
		c-6.1,0-5.7-5.7-5.7-5.7s0-5.7,5.7-5.7C33.4,16.7,32.6,23.1,32.6,23.1z"/>
</g>
</svg>
