<?xml version="1.0" encoding="utf-8"?>
<svg version="1.1" id="Layer_1" xmlns="http://www.w3.org/2000/svg" xmlns:xlink="http://www.w3.org/1999/xlink" x="0px" y="0px"
	 width="40px" height="40px" viewBox="0 0 40 40" enable-background="new 0 0 40 40" xml:space="preserve">
<g>
	<path fill="#FFFFFF" d="M24.8,18.9c-1.2,0-2.2,0.3-2.6,1.8c-0.2,1-0.2,1.6-0.3,2.4c0,0.2-0.1,1.2-0.1,1.5c0,1.2,0.4,2.3,1.6,2.6
		c1.2,0.2,1.8-0.7,2.4-1.6c0.8-1.4,1.1-2.9,1-4.4C26.7,19.8,26.1,18.9,24.8,18.9z"/>
	<path fill="#FFFFFF" d="M17.2,19.9c-1.8-0.1-2.8-1.3-2.9-2.1c0-0.5,0.2-0.7,0.1-0.7c-0.3-0.1-1.2,0-1.6,0.3
		c-1.3,1.1-0.8,2.1,0.5,2.8c1.3,0.7,2.7,1.2,4.4,2C17.6,21.1,18,20,18,19.8C18,19.8,17.7,19.9,17.2,19.9z"/>
	<path fill="#FFFFFF" d="M20,0C9,0,0,9,0,20c0,11,9,20,20,20c11,0,20-9,20-20C40,9,31,0,20,0z M31.1,23c-1,3.1-3.5,4.5-6.4,5
		c-2.8,0.5-5.3-0.1-6.6-2.9c-2.2,2.9-5.9,4-9.3,2.7c-1.1-0.4-2-0.9-2-2.3c0-1,0.7-1.5,1.5-1.7c1.3-0.3,2.4,0.9,2.6,1.6
		C11,26,11,26.4,11,27c0,0.2,0.8,0.3,1.4,0.2c0.6-0.2,1.5-0.6,1.6-1.6c0.1-1.2-0.7-1.6-1.5-2c-0.5-0.2-1-0.5-1.5-0.7
		c-1.5-0.6-2.7-1.4-2.7-3c0-1.7,1.2-2.8,2.6-3.3c2.3-0.9,4.7-1.1,7,0.3c0.5,0.3,0.9,0.8,0.9,0.8c0.2-0.3,0.5-0.7,0.8-1.1
		c2.2-3.1,5.4-4.7,9-5.5c0.6-0.1,1.8-0.3,1.9,0.2c0.2,0.9-0.9,0.9-1.5,1.1c-2.8,0.9-4.9,2.7-6,5.7c0.8-0.4,2.5-0.9,3.8-0.8
		C30.2,17.2,32.2,19.7,31.1,23z"/>
</g>
</svg>
