<?xml version="1.0" encoding="utf-8"?> 
<svg version="1.1" xmlns="http://www.w3.org/2000/svg" xmlns:xlink="http://www.w3.org/1999/xlink" x="0px" y="0px" width="673.2px"
	 height="352.2px" viewBox="0 0 673.2 352.2" enable-background="new 0 0 673.2 352.2" xml:space="preserve">
<g id="Layer_5" display="none">
	<rect x="-148.5" y="-140.7" display="inline" fill="#5EC8D3" width="956" height="516"/>
	<path display="inline" fill="#6FC3CC" d="M657.5,146.8"/>
</g>
<g id="tablet">
	<g>
		<g>
			<g opacity="0.75">
				<path fill="none" stroke="#161616" stroke-width="3" stroke-linejoin="round" stroke-miterlimit="10" d="M220.7,219h-57.5
					c-1.7,0-3-1.4-3-3V78.5c0-1.7,1.3-3,3-3h19.5"/>
				<path fill="#161616" d="M171.3,77.6c0,0.3,0.2,0.6,0.5,0.7l4.1,1.7c0.3,0.1,0.7,0.2,1,0.2h7.5c0.3,0,0.5-0.2,0.5-0.5V71
					c0-0.3-0.2-0.5-0.5-0.5h-7.5c-0.3,0-0.7,0.1-1,0.2l-4.1,1.7c-0.3,0.1-0.5,0.4-0.5,0.7V77.6z"/>
				<path fill="#161616" d="M168.2,77c0,0.3,0.2,0.5,0.5,0.5h2.9c0.3,0,0.5-0.2,0.5-0.5v-3.2c0-0.3-0.2-0.5-0.5-0.5h-2.9
					c-0.3,0-0.5,0.2-0.5,0.5V77z"/>
			</g>
			<g>
				<g>
					<g>
						<path fill="none" stroke="#727272" stroke-width="3" stroke-linejoin="round" stroke-miterlimit="10" d="M220.7,218h-57.5
							c-1.7,0-3-1.4-3-3V77.5c0-1.7,1.3-3,3-3h19.5"/>
					</g>
					<g>
						<path fill="#727272" d="M171.3,76.6c0,0.3,0.2,0.6,0.5,0.7l4.1,1.7c0.3,0.1,0.7,0.2,1,0.2h7.5c0.3,0,0.5-0.2,0.5-0.5V70
							c0-0.3-0.2-0.5-0.5-0.5h-7.5c-0.3,0-0.7,0.1-1,0.2l-4.1,1.7c-0.3,0.1-0.5,0.4-0.5,0.7V76.6z"/>
					</g>
					<g>
						<path fill="#727272" d="M168.2,76c0,0.3,0.2,0.5,0.5,0.5h2.9c0.3,0,0.5-0.2,0.5-0.5v-3.2c0-0.3-0.2-0.5-0.5-0.5h-2.9
							c-0.3,0-0.5,0.2-0.5,0.5V76z"/>
					</g>
				</g>
			</g>
		</g>
		<g>
			<g opacity="0.75">
				<path fill="#586372" d="M411.2,337c0,1.7-1.3,3-3,3h-189c-1.7,0-3-1.3-3-3V215c0-1.7,1.3-3,3-3h189c1.7,0,3,1.3,3,3V337z"/>
				<path fill="none" stroke="#586372" stroke-miterlimit="10" d="M410.7,337.5c0,1.7-1.3,3-3,3h-189c-1.7,0-3-1.3-3-3v-122
					c0-1.7,1.3-3,3-3h189c1.7,0,3,1.3,3,3V337.5z"/>
			</g>
			<g>
				<path fill="#A2A4A5" d="M411.2,335c0,1.7-1.3,3-3,3h-189c-1.7,0-3-1.3-3-3V213c0-1.7,1.3-3,3-3h189c1.7,0,3,1.3,3,3V335z"/>
				<path fill="none" stroke="#C3C7C9" stroke-miterlimit="10" d="M410.7,335.5c0,1.7-1.3,3-3,3h-189c-1.7,0-3-1.3-3-3v-122
					c0-1.7,1.3-3,3-3h189c1.7,0,3,1.3,3,3V335.5z"/>
			</g>
		</g>
		<g>
			<linearGradient id="SVGID_1_" gradientUnits="userSpaceOnUse" x1="313.2077" y1="337.6247" x2="313.2077" y2="211.8333">
				<stop  offset="0" style="stop-color:#96A1AA"/>
				<stop  offset="0.1555" style="stop-color:#A4ACB2"/>
				<stop  offset="0.3194" style="stop-color:#A3A9B0"/>
				<stop  offset="1" style="stop-color:#A2A7AF"/>
			</linearGradient>
			<path fill="url(#SVGID_1_)" d="M409.2,335.1c0,1.4-1.1,2.5-2.5,2.5H219.7c-1.4,0-2.5-1.1-2.5-2.5V214.3c0-1.4,1.1-2.5,2.5-2.5
				h186.9c1.4,0,2.5,1.1,2.5,2.5V335.1z"/>
			<path fill="none" stroke="#838687" stroke-width="0.5" stroke-miterlimit="10" d="M409.2,335.1c0,1.4-1.1,2.5-2.5,2.5H219.7
				c-1.4,0-2.5-1.1-2.5-2.5V214.3c0-1.4,1.1-2.5,2.5-2.5h186.9c1.4,0,2.5,1.1,2.5,2.5V335.1z"/>
		</g>
		<g opacity="0.15">
			<defs>
				<rect id="SVGID_2_" x="216.2" y="210" opacity="0.15" width="195" height="128"/>
			</defs>
			<clipPath id="SVGID_3_">
				<use xlink:href="#SVGID_2_"  overflow="visible"/>
			</clipPath>
			<polygon clip-path="url(#SVGID_3_)" fill="#CED4D8" points="170.7,205.5 338.2,205.5 263.2,359 147.7,359 169.7,207.5 			"/>
		</g>
		<g>
			<path fill="#7A7E7F" d="M385.4,301.5c0,0.5-0.4,1-1,1H268.9c-0.5,0-1-0.5-1-1v-72.2c0-0.6,0.5-1,1-1h115.4c0.6,0,1,0.4,1,1V301.5
				z"/>
			<path fill="none" stroke="#3D3E3F" stroke-width="0.3" stroke-miterlimit="10" d="M385.4,301.5c0,0.5-0.4,1-1,1H268.9
				c-0.5,0-1-0.5-1-1v-72.2c0-0.6,0.5-1,1-1h115.4c0.6,0,1,0.4,1,1V301.5z"/>
		</g>
		<g>
			<path fill="#B7B7BC" d="M260.2,264.6c0,0.5-0.5,1-1,1h-29.9c-0.6,0-1-0.5-1-1v-36c0-0.6,0.4-1,1-1h29.9c0.5,0,1,0.4,1,1V264.6z"
				/>
		</g>
		<g>
			<path fill="#6A6A6B" d="M248.5,263.6c0,0.5-0.4,1-1,1h-17.3c-0.6,0-1-0.4-1-1v-34c0-0.6,0.4-1,1-1h17.3c0.6,0,1,0.4,1,1V263.6z"
				/>
		</g>
		<g>
			<path fill="#59595B" d="M238,253.2c0,0.3-0.2,0.5-0.5,0.5h-6.6c-0.3,0-0.5-0.2-0.5-0.5v-22.8c0-0.3,0.2-0.5,0.5-0.5h6.6
				c0.3,0,0.5,0.2,0.5,0.5V253.2z"/>
		</g>
		<g>
			<path fill="#7D7D7F" d="M238,252.4c0,0.3-0.2,0.5-0.5,0.5h-6.6c-0.3,0-0.5-0.2-0.5-0.5v-22c0-0.3,0.2-0.5,0.5-0.5h6.6
				c0.3,0,0.5,0.2,0.5,0.5V252.4z"/>
		</g>
		<g>
			<path fill="#59595B" d="M230.7,263.7c-0.3,0-0.5-0.2-0.5-0.5V256c0-0.3,0.2-0.5,0.5-0.5h16.3c0.3,0,0.5,0.2,0.5,0.5v7.2
				c0,0.3-0.2,0.5-0.5,0.5H230.7z"/>
		</g>
		<g>
			<path fill="#7D7D7F" d="M230.9,262.9c-0.3,0-0.5-0.2-0.5-0.5v-6.9c0-0.3,0.2-0.5,0.5-0.5h15.9c0.3,0,0.5,0.2,0.5,0.5v6.9
				c0,0.3-0.2,0.5-0.5,0.5H230.9z"/>
		</g>
		<g>
			<path fill="#59595B" d="M247.1,240.6c0,0.3-0.2,0.5-0.5,0.5h-6.7c-0.3,0-0.5-0.2-0.5-0.5v-10.2c0-0.3,0.2-0.5,0.5-0.5h6.7
				c0.3,0,0.5,0.2,0.5,0.5V240.6z"/>
		</g>
		<g>
			<path fill="#7D7D7F" d="M247.1,240c0,0.3-0.2,0.5-0.5,0.5h-6.7c-0.3,0-0.5-0.2-0.5-0.5v-9.6c0-0.3,0.2-0.5,0.5-0.5h6.7
				c0.3,0,0.5,0.2,0.5,0.5V240z"/>
		</g>
		<g>
			<path fill="#89898C" d="M259.1,263.3c0,0.6-0.5,1-1,1h-6.4c-0.6,0-1-0.4-1-1v-33.6c0-0.5,0.4-1,1-1h6.4c0.5,0,1,0.5,1,1V263.3z"
				/>
			<path fill="none" stroke="#6A6A6B" stroke-width="0.25" stroke-miterlimit="10" d="M259.1,263.3c0,0.6-0.5,1-1,1h-6.4
				c-0.6,0-1-0.4-1-1v-33.6c0-0.5,0.4-1,1-1h6.4c0.5,0,1,0.5,1,1V263.3z"/>
		</g>
		<g>
			<path fill="#59595B" d="M247.1,253.2c0,0.3-0.2,0.5-0.5,0.5h-6.7c-0.3,0-0.5-0.2-0.5-0.5v-10.2c0-0.3,0.2-0.5,0.5-0.5h6.7
				c0.3,0,0.5,0.2,0.5,0.5V253.2z"/>
		</g>
		<g>
			<path fill="#7D7D7F" d="M247,252.6c0,0.3-0.2,0.5-0.5,0.5h-6.7c-0.3,0-0.5-0.2-0.5-0.5v-9.5c0-0.3,0.2-0.5,0.5-0.5h6.7
				c0.3,0,0.5,0.2,0.5,0.5V252.6z"/>
		</g>
		<linearGradient id="SVGID_4_" gradientUnits="userSpaceOnUse" x1="243.1882" y1="247.1833" x2="243.1882" y2="248.4622">
			<stop  offset="0" style="stop-color:#47526A"/>
			<stop  offset="1" style="stop-color:#6C6B76"/>
		</linearGradient>
		<ellipse fill="url(#SVGID_4_)" cx="243.2" cy="247.8" rx="0.6" ry="0.6"/>
	</g>
</g>
<g id="laptop">
	<g>
		<path fill="#AAACAF" d="M448.2,185c0-2.8-2.2-5-5-5h-255c-2.8,0-5,2.2-5,5v10c0,2.8,2.2,5,5,5h255c2.8,0,5-2.2,5-5V185z"/>
	</g>
	<g>
		<path fill="#E1E2E5" d="M460.2,3c0-1.7-1.3-3-3-3h-285c-1.7,0-3,1.3-3,3v4c0,1.7,1.3,3,3,3h285c1.7,0,3-1.3,3-3V3z"/>
	</g>
	<g>
		<path fill="#E1E2E5" d="M448.2,45c0-2.2-1.8-4-4-4h-257c-2.2,0-4,1.8-4,4v148c0,2.2,1.8,4,4,4h257c2.2,0,4-1.8,4-4V45z"/>
	</g>
	<g>
		<path fill="#BDBFC1" d="M423.2,137c0,1.1-0.9,2-2,2h-210c-1.1,0-2-0.9-2-2V59c0-1.1,0.9-2,2-2h210c1.1,0,2,0.9,2,2V137z"/>
	</g>
	<g>
		<path fill="#D2D4D6" d="M284,148.4c0-1.1,0.9-2,2-2h58.5c1.1,0,2,0.9,2,2v36.1c0,1.1-0.9,2-2,2H286c-1.1,0-2-0.9-2-2V148.4z"/>
		<path fill="none" stroke="#8B8F91" stroke-width="0.15" stroke-miterlimit="10" d="M284,148.4c0-1.1,0.9-2,2-2h58.5
			c1.1,0,2,0.9,2,2v36.1c0,1.1-0.9,2-2,2H286c-1.1,0-2-0.9-2-2V148.4z"/>
	</g>
	<g>
		<path fill="#2C2E30" d="M417.2,45.5c0,0.8-0.7,1.5-1.5,1.5h-199c-0.8,0-1.5-0.7-1.5-1.5v-6c0-0.8,0.7-1.5,1.5-1.5h199
			c0.8,0,1.5,0.7,1.5,1.5V45.5z"/>
	</g>
	<g>
		<g>
			<g>
				<path d="M348.2,134c0,0.6-0.4,1-1,1h-76c-0.6,0-1-0.4-1-1v-9c0-0.6,0.4-1,1-1h76c0.6,0,1,0.4,1,1V134z"/>
			</g>
			<g>
				<path fill="#525354" d="M348.2,133c0,0.6-0.4,1-1,1h-76c-0.6,0-1-0.4-1-1v-9c0-0.6,0.4-1,1-1h76c0.6,0,1,0.4,1,1V133z"/>
			</g>
		</g>
		<g>
			<g>
				<path d="M258.2,121c0,0.6-0.4,1-1,1h-9c-0.6,0-1-0.4-1-1v-9c0-0.6,0.4-1,1-1h9c0.6,0,1,0.4,1,1V121z"/>
			</g>
			<g>
				<path fill="#525354" d="M258.2,120c0,0.6-0.4,1-1,1h-9c-0.6,0-1-0.4-1-1v-9c0-0.6,0.4-1,1-1h9c0.6,0,1,0.4,1,1V120z"/>
			</g>
		</g>
		<g>
			<g>
				<path d="M251.2,108c0,0.6-0.4,1-1,1h-9c-0.6,0-1-0.4-1-1v-9c0-0.6,0.4-1,1-1h9c0.6,0,1,0.4,1,1V108z"/>
			</g>
			<g>
				<path fill="#525354" d="M251.2,107c0,0.6-0.4,1-1,1h-9c-0.6,0-1-0.4-1-1v-9c0-0.6,0.4-1,1-1h9c0.6,0,1,0.4,1,1V107z"/>
			</g>
		</g>
		<g>
			<g>
				<path d="M248.2,95c0,0.6-0.4,1-1,1h-9c-0.6,0-1-0.4-1-1v-9c0-0.6,0.4-1,1-1h9c0.6,0,1,0.4,1,1V95z"/>
			</g>
			<g>
				<path fill="#525354" d="M248.2,94c0,0.6-0.4,1-1,1h-9c-0.6,0-1-0.4-1-1v-9c0-0.6,0.4-1,1-1h9c0.6,0,1,0.4,1,1V94z"/>
			</g>
		</g>
		<g>
			<g>
				<path d="M271.2,121c0,0.6-0.4,1-1,1h-9c-0.6,0-1-0.4-1-1v-9c0-0.6,0.4-1,1-1h9c0.6,0,1,0.4,1,1V121z"/>
			</g>
			<g>
				<path fill="#525354" d="M271.2,120c0,0.6-0.4,1-1,1h-9c-0.6,0-1-0.4-1-1v-9c0-0.6,0.4-1,1-1h9c0.6,0,1,0.4,1,1V120z"/>
			</g>
		</g>
		<g>
			<g>
				<path d="M264.2,108c0,0.6-0.4,1-1,1h-9c-0.6,0-1-0.4-1-1v-9c0-0.6,0.4-1,1-1h9c0.6,0,1,0.4,1,1V108z"/>
			</g>
			<g>
				<path fill="#525354" d="M264.2,107c0,0.6-0.4,1-1,1h-9c-0.6,0-1-0.4-1-1v-9c0-0.6,0.4-1,1-1h9c0.6,0,1,0.4,1,1V107z"/>
			</g>
		</g>
		<g>
			<g>
				<path d="M261.2,95c0,0.6-0.4,1-1,1h-9c-0.6,0-1-0.4-1-1v-9c0-0.6,0.4-1,1-1h9c0.6,0,1,0.4,1,1V95z"/>
			</g>
			<g>
				<path fill="#525354" d="M261.2,94c0,0.6-0.4,1-1,1h-9c-0.6,0-1-0.4-1-1v-9c0-0.6,0.4-1,1-1h9c0.6,0,1,0.4,1,1V94z"/>
			</g>
		</g>
		<g>
			<g>
				<path d="M284.2,121c0,0.6-0.4,1-1,1h-9c-0.6,0-1-0.4-1-1v-9c0-0.6,0.4-1,1-1h9c0.6,0,1,0.4,1,1V121z"/>
			</g>
			<g>
				<path fill="#525354" d="M284.2,120c0,0.6-0.4,1-1,1h-9c-0.6,0-1-0.4-1-1v-9c0-0.6,0.4-1,1-1h9c0.6,0,1,0.4,1,1V120z"/>
			</g>
		</g>
		<g>
			<g>
				<path d="M277.2,108c0,0.6-0.4,1-1,1h-9c-0.6,0-1-0.4-1-1v-9c0-0.6,0.4-1,1-1h9c0.6,0,1,0.4,1,1V108z"/>
			</g>
			<g>
				<path fill="#525354" d="M277.2,107c0,0.6-0.4,1-1,1h-9c-0.6,0-1-0.4-1-1v-9c0-0.6,0.4-1,1-1h9c0.6,0,1,0.4,1,1V107z"/>
			</g>
		</g>
		<g>
			<g>
				<path d="M274.2,95c0,0.6-0.4,1-1,1h-9c-0.6,0-1-0.4-1-1v-9c0-0.6,0.4-1,1-1h9c0.6,0,1,0.4,1,1V95z"/>
			</g>
			<g>
				<path fill="#525354" d="M274.2,94c0,0.6-0.4,1-1,1h-9c-0.6,0-1-0.4-1-1v-9c0-0.6,0.4-1,1-1h9c0.6,0,1,0.4,1,1V94z"/>
			</g>
		</g>
		<g>
			<g>
				<path d="M297.2,121c0,0.6-0.4,1-1,1h-9c-0.6,0-1-0.4-1-1v-9c0-0.6,0.4-1,1-1h9c0.6,0,1,0.4,1,1V121z"/>
			</g>
			<g>
				<path fill="#525354" d="M297.2,120c0,0.6-0.4,1-1,1h-9c-0.6,0-1-0.4-1-1v-9c0-0.6,0.4-1,1-1h9c0.6,0,1,0.4,1,1V120z"/>
			</g>
		</g>
		<g>
			<g>
				<path d="M290.2,108c0,0.6-0.4,1-1,1h-9c-0.6,0-1-0.4-1-1v-9c0-0.6,0.4-1,1-1h9c0.6,0,1,0.4,1,1V108z"/>
			</g>
			<g>
				<path fill="#525354" d="M290.2,107c0,0.6-0.4,1-1,1h-9c-0.6,0-1-0.4-1-1v-9c0-0.6,0.4-1,1-1h9c0.6,0,1,0.4,1,1V107z"/>
			</g>
		</g>
		<g>
			<g>
				<path d="M287.2,95c0,0.6-0.4,1-1,1h-9c-0.6,0-1-0.4-1-1v-9c0-0.6,0.4-1,1-1h9c0.6,0,1,0.4,1,1V95z"/>
			</g>
			<g>
				<path fill="#525354" d="M287.2,94c0,0.6-0.4,1-1,1h-9c-0.6,0-1-0.4-1-1v-9c0-0.6,0.4-1,1-1h9c0.6,0,1,0.4,1,1V94z"/>
			</g>
		</g>
		<g>
			<g>
				<path d="M310.2,121c0,0.6-0.4,1-1,1h-9c-0.6,0-1-0.4-1-1v-9c0-0.6,0.4-1,1-1h9c0.6,0,1,0.4,1,1V121z"/>
			</g>
			<g>
				<path fill="#525354" d="M310.2,120c0,0.6-0.4,1-1,1h-9c-0.6,0-1-0.4-1-1v-9c0-0.6,0.4-1,1-1h9c0.6,0,1,0.4,1,1V120z"/>
			</g>
		</g>
		<g>
			<g>
				<path d="M303.2,108c0,0.6-0.4,1-1,1h-9c-0.6,0-1-0.4-1-1v-9c0-0.6,0.4-1,1-1h9c0.6,0,1,0.4,1,1V108z"/>
			</g>
			<g>
				<path fill="#525354" d="M303.2,107c0,0.6-0.4,1-1,1h-9c-0.6,0-1-0.4-1-1v-9c0-0.6,0.4-1,1-1h9c0.6,0,1,0.4,1,1V107z"/>
			</g>
		</g>
		<g>
			<g>
				<path d="M300.2,95c0,0.6-0.4,1-1,1h-9c-0.6,0-1-0.4-1-1v-9c0-0.6,0.4-1,1-1h9c0.6,0,1,0.4,1,1V95z"/>
			</g>
			<g>
				<path fill="#525354" d="M300.2,94c0,0.6-0.4,1-1,1h-9c-0.6,0-1-0.4-1-1v-9c0-0.6,0.4-1,1-1h9c0.6,0,1,0.4,1,1V94z"/>
			</g>
		</g>
		<g>
			<g>
				<path d="M323.2,121c0,0.6-0.4,1-1,1h-9c-0.6,0-1-0.4-1-1v-9c0-0.6,0.4-1,1-1h9c0.6,0,1,0.4,1,1V121z"/>
			</g>
			<g>
				<path fill="#525354" d="M323.2,120c0,0.6-0.4,1-1,1h-9c-0.6,0-1-0.4-1-1v-9c0-0.6,0.4-1,1-1h9c0.6,0,1,0.4,1,1V120z"/>
			</g>
		</g>
		<g>
			<g>
				<path d="M316.2,108c0,0.6-0.4,1-1,1h-9c-0.6,0-1-0.4-1-1v-9c0-0.6,0.4-1,1-1h9c0.6,0,1,0.4,1,1V108z"/>
			</g>
			<g>
				<path fill="#525354" d="M316.2,107c0,0.6-0.4,1-1,1h-9c-0.6,0-1-0.4-1-1v-9c0-0.6,0.4-1,1-1h9c0.6,0,1,0.4,1,1V107z"/>
			</g>
		</g>
		<g>
			<g>
				<path d="M313.2,95c0,0.6-0.4,1-1,1h-9c-0.6,0-1-0.4-1-1v-9c0-0.6,0.4-1,1-1h9c0.6,0,1,0.4,1,1V95z"/>
			</g>
			<g>
				<path fill="#525354" d="M313.2,94c0,0.6-0.4,1-1,1h-9c-0.6,0-1-0.4-1-1v-9c0-0.6,0.4-1,1-1h9c0.6,0,1,0.4,1,1V94z"/>
			</g>
		</g>
		<g>
			<g>
				<path d="M336.2,121c0,0.6-0.4,1-1,1h-9c-0.6,0-1-0.4-1-1v-9c0-0.6,0.4-1,1-1h9c0.6,0,1,0.4,1,1V121z"/>
			</g>
			<g>
				<path fill="#525354" d="M336.2,120c0,0.6-0.4,1-1,1h-9c-0.6,0-1-0.4-1-1v-9c0-0.6,0.4-1,1-1h9c0.6,0,1,0.4,1,1V120z"/>
			</g>
		</g>
		<g>
			<g>
				<path d="M329.2,108c0,0.6-0.4,1-1,1h-9c-0.6,0-1-0.4-1-1v-9c0-0.6,0.4-1,1-1h9c0.6,0,1,0.4,1,1V108z"/>
			</g>
			<g>
				<path fill="#525354" d="M329.2,107c0,0.6-0.4,1-1,1h-9c-0.6,0-1-0.4-1-1v-9c0-0.6,0.4-1,1-1h9c0.6,0,1,0.4,1,1V107z"/>
			</g>
		</g>
		<g>
			<g>
				<path d="M326.2,95c0,0.6-0.4,1-1,1h-9c-0.6,0-1-0.4-1-1v-9c0-0.6,0.4-1,1-1h9c0.6,0,1,0.4,1,1V95z"/>
			</g>
			<g>
				<path fill="#525354" d="M326.2,94c0,0.6-0.4,1-1,1h-9c-0.6,0-1-0.4-1-1v-9c0-0.6,0.4-1,1-1h9c0.6,0,1,0.4,1,1V94z"/>
			</g>
		</g>
		<g>
			<g>
				<path d="M349.2,121c0,0.6-0.4,1-1,1h-9c-0.6,0-1-0.4-1-1v-9c0-0.6,0.4-1,1-1h9c0.6,0,1,0.4,1,1V121z"/>
			</g>
			<g>
				<path fill="#525354" d="M349.2,120c0,0.6-0.4,1-1,1h-9c-0.6,0-1-0.4-1-1v-9c0-0.6,0.4-1,1-1h9c0.6,0,1,0.4,1,1V120z"/>
			</g>
		</g>
		<g>
			<g>
				<path d="M342.2,108c0,0.6-0.4,1-1,1h-9c-0.6,0-1-0.4-1-1v-9c0-0.6,0.4-1,1-1h9c0.6,0,1,0.4,1,1V108z"/>
			</g>
			<g>
				<path fill="#525354" d="M342.2,107c0,0.6-0.4,1-1,1h-9c-0.6,0-1-0.4-1-1v-9c0-0.6,0.4-1,1-1h9c0.6,0,1,0.4,1,1V107z"/>
			</g>
		</g>
		<g>
			<g>
				<path d="M339.2,95c0,0.6-0.4,1-1,1h-9c-0.6,0-1-0.4-1-1v-9c0-0.6,0.4-1,1-1h9c0.6,0,1,0.4,1,1V95z"/>
			</g>
			<g>
				<path fill="#525354" d="M339.2,94c0,0.6-0.4,1-1,1h-9c-0.6,0-1-0.4-1-1v-9c0-0.6,0.4-1,1-1h9c0.6,0,1,0.4,1,1V94z"/>
			</g>
		</g>
		<g>
			<g>
				<path d="M362.2,121c0,0.6-0.4,1-1,1h-9c-0.6,0-1-0.4-1-1v-9c0-0.6,0.4-1,1-1h9c0.6,0,1,0.4,1,1V121z"/>
			</g>
			<g>
				<path fill="#525354" d="M362.2,120c0,0.6-0.4,1-1,1h-9c-0.6,0-1-0.4-1-1v-9c0-0.6,0.4-1,1-1h9c0.6,0,1,0.4,1,1V120z"/>
			</g>
		</g>
		<g>
			<g>
				<path d="M355.2,108c0,0.6-0.4,1-1,1h-9c-0.6,0-1-0.4-1-1v-9c0-0.6,0.4-1,1-1h9c0.6,0,1,0.4,1,1V108z"/>
			</g>
			<g>
				<path fill="#525354" d="M355.2,107c0,0.6-0.4,1-1,1h-9c-0.6,0-1-0.4-1-1v-9c0-0.6,0.4-1,1-1h9c0.6,0,1,0.4,1,1V107z"/>
			</g>
		</g>
		<g>
			<g>
				<path d="M352.2,95c0,0.6-0.4,1-1,1h-9c-0.6,0-1-0.4-1-1v-9c0-0.6,0.4-1,1-1h9c0.6,0,1,0.4,1,1V95z"/>
			</g>
			<g>
				<path fill="#525354" d="M352.2,94c0,0.6-0.4,1-1,1h-9c-0.6,0-1-0.4-1-1v-9c0-0.6,0.4-1,1-1h9c0.6,0,1,0.4,1,1V94z"/>
			</g>
		</g>
		<g>
			<g>
				<path d="M375.2,121c0,0.6-0.4,1-1,1h-9c-0.6,0-1-0.4-1-1v-9c0-0.6,0.4-1,1-1h9c0.6,0,1,0.4,1,1V121z"/>
			</g>
			<g>
				<path fill="#525354" d="M375.2,120c0,0.6-0.4,1-1,1h-9c-0.6,0-1-0.4-1-1v-9c0-0.6,0.4-1,1-1h9c0.6,0,1,0.4,1,1V120z"/>
			</g>
		</g>
		<g>
			<g>
				<path d="M368.2,108c0,0.6-0.4,1-1,1h-9c-0.6,0-1-0.4-1-1v-9c0-0.6,0.4-1,1-1h9c0.6,0,1,0.4,1,1V108z"/>
			</g>
			<g>
				<path fill="#525354" d="M368.2,107c0,0.6-0.4,1-1,1h-9c-0.6,0-1-0.4-1-1v-9c0-0.6,0.4-1,1-1h9c0.6,0,1,0.4,1,1V107z"/>
			</g>
		</g>
		<g>
			<g>
				<path d="M365.2,95c0,0.6-0.4,1-1,1h-9c-0.6,0-1-0.4-1-1v-9c0-0.6,0.4-1,1-1h9c0.6,0,1,0.4,1,1V95z"/>
			</g>
			<g>
				<path fill="#525354" d="M365.2,94c0,0.6-0.4,1-1,1h-9c-0.6,0-1-0.4-1-1v-9c0-0.6,0.4-1,1-1h9c0.6,0,1,0.4,1,1V94z"/>
			</g>
		</g>
		<g>
			<g>
				<path d="M388.2,121c0,0.6-0.4,1-1,1h-9c-0.6,0-1-0.4-1-1v-9c0-0.6,0.4-1,1-1h9c0.6,0,1,0.4,1,1V121z"/>
			</g>
			<g>
				<path fill="#525354" d="M388.2,120c0,0.6-0.4,1-1,1h-9c-0.6,0-1-0.4-1-1v-9c0-0.6,0.4-1,1-1h9c0.6,0,1,0.4,1,1V120z"/>
			</g>
		</g>
		<g>
			<g>
				<path d="M381.2,108c0,0.6-0.4,1-1,1h-9c-0.6,0-1-0.4-1-1v-9c0-0.6,0.4-1,1-1h9c0.6,0,1,0.4,1,1V108z"/>
			</g>
			<g>
				<path fill="#525354" d="M381.2,107c0,0.6-0.4,1-1,1h-9c-0.6,0-1-0.4-1-1v-9c0-0.6,0.4-1,1-1h9c0.6,0,1,0.4,1,1V107z"/>
			</g>
		</g>
		<g>
			<g>
				<path d="M378.2,95c0,0.6-0.4,1-1,1h-9c-0.6,0-1-0.4-1-1v-9c0-0.6,0.4-1,1-1h9c0.6,0,1,0.4,1,1V95z"/>
			</g>
			<g>
				<path fill="#525354" d="M378.2,94c0,0.6-0.4,1-1,1h-9c-0.6,0-1-0.4-1-1v-9c0-0.6,0.4-1,1-1h9c0.6,0,1,0.4,1,1V94z"/>
			</g>
		</g>
		<g>
			<g>
				<path d="M394.2,108c0,0.6-0.4,1-1,1h-9c-0.6,0-1-0.4-1-1v-9c0-0.6,0.4-1,1-1h9c0.6,0,1,0.4,1,1V108z"/>
			</g>
			<g>
				<path fill="#525354" d="M394.2,107c0,0.6-0.4,1-1,1h-9c-0.6,0-1-0.4-1-1v-9c0-0.6,0.4-1,1-1h9c0.6,0,1,0.4,1,1V107z"/>
			</g>
		</g>
		<g>
			<g>
				<path d="M391.2,95c0,0.6-0.4,1-1,1h-9c-0.6,0-1-0.4-1-1v-9c0-0.6,0.4-1,1-1h9c0.6,0,1,0.4,1,1V95z"/>
			</g>
			<g>
				<path fill="#525354" d="M391.2,94c0,0.6-0.4,1-1,1h-9c-0.6,0-1-0.4-1-1v-9c0-0.6,0.4-1,1-1h9c0.6,0,1,0.4,1,1V94z"/>
			</g>
		</g>
		<g>
			<g>
				<path d="M404.2,95c0,0.6-0.4,1-1,1h-9c-0.6,0-1-0.4-1-1v-9c0-0.6,0.4-1,1-1h9c0.6,0,1,0.4,1,1V95z"/>
			</g>
			<g>
				<path fill="#525354" d="M404.2,94c0,0.6-0.4,1-1,1h-9c-0.6,0-1-0.4-1-1v-9c0-0.6,0.4-1,1-1h9c0.6,0,1,0.4,1,1V94z"/>
			</g>
		</g>
		<g>
			<g>
				<path d="M417.2,95c0,0.6-0.4,1-1,1h-9c-0.6,0-1-0.4-1-1v-9c0-0.6,0.4-1,1-1h9c0.6,0,1,0.4,1,1V95z"/>
			</g>
			<g>
				<path fill="#525354" d="M417.2,94c0,0.6-0.4,1-1,1h-9c-0.6,0-1-0.4-1-1v-9c0-0.6,0.4-1,1-1h9c0.6,0,1,0.4,1,1V94z"/>
			</g>
		</g>
		<g>
			<g>
				<path d="M226.2,82c0,0.6-0.4,1-1,1h-9c-0.6,0-1-0.4-1-1v-9c0-0.6,0.4-1,1-1h9c0.6,0,1,0.4,1,1V82z"/>
			</g>
			<g>
				<path fill="#525354" d="M226.2,81c0,0.6-0.4,1-1,1h-9c-0.6,0-1-0.4-1-1v-9c0-0.6,0.4-1,1-1h9c0.6,0,1,0.4,1,1V81z"/>
			</g>
		</g>
		<g>
			<g>
				<path d="M239.2,82c0,0.6-0.4,1-1,1h-9c-0.6,0-1-0.4-1-1v-9c0-0.6,0.4-1,1-1h9c0.6,0,1,0.4,1,1V82z"/>
			</g>
			<g>
				<path fill="#525354" d="M239.2,81c0,0.6-0.4,1-1,1h-9c-0.6,0-1-0.4-1-1v-9c0-0.6,0.4-1,1-1h9c0.6,0,1,0.4,1,1V81z"/>
			</g>
		</g>
		<g>
			<g>
				<path d="M252.2,82c0,0.6-0.4,1-1,1h-9c-0.6,0-1-0.4-1-1v-9c0-0.6,0.4-1,1-1h9c0.6,0,1,0.4,1,1V82z"/>
			</g>
			<g>
				<path fill="#525354" d="M252.2,81c0,0.6-0.4,1-1,1h-9c-0.6,0-1-0.4-1-1v-9c0-0.6,0.4-1,1-1h9c0.6,0,1,0.4,1,1V81z"/>
			</g>
		</g>
		<g>
			<g>
				<path d="M265.2,82c0,0.6-0.4,1-1,1h-9c-0.6,0-1-0.4-1-1v-9c0-0.6,0.4-1,1-1h9c0.6,0,1,0.4,1,1V82z"/>
			</g>
			<g>
				<path fill="#525354" d="M265.2,81c0,0.6-0.4,1-1,1h-9c-0.6,0-1-0.4-1-1v-9c0-0.6,0.4-1,1-1h9c0.6,0,1,0.4,1,1V81z"/>
			</g>
		</g>
		<g>
			<g>
				<path d="M278.2,82c0,0.6-0.4,1-1,1h-9c-0.6,0-1-0.4-1-1v-9c0-0.6,0.4-1,1-1h9c0.6,0,1,0.4,1,1V82z"/>
			</g>
			<g>
				<path fill="#525354" d="M278.2,81c0,0.6-0.4,1-1,1h-9c-0.6,0-1-0.4-1-1v-9c0-0.6,0.4-1,1-1h9c0.6,0,1,0.4,1,1V81z"/>
			</g>
		</g>
		<g>
			<g>
				<path d="M291.2,82c0,0.6-0.4,1-1,1h-9c-0.6,0-1-0.4-1-1v-9c0-0.6,0.4-1,1-1h9c0.6,0,1,0.4,1,1V82z"/>
			</g>
			<g>
				<path fill="#525354" d="M291.2,81c0,0.6-0.4,1-1,1h-9c-0.6,0-1-0.4-1-1v-9c0-0.6,0.4-1,1-1h9c0.6,0,1,0.4,1,1V81z"/>
			</g>
		</g>
		<g>
			<g>
				<path d="M304.2,82c0,0.6-0.4,1-1,1h-9c-0.6,0-1-0.4-1-1v-9c0-0.6,0.4-1,1-1h9c0.6,0,1,0.4,1,1V82z"/>
			</g>
			<g>
				<path fill="#525354" d="M304.2,81c0,0.6-0.4,1-1,1h-9c-0.6,0-1-0.4-1-1v-9c0-0.6,0.4-1,1-1h9c0.6,0,1,0.4,1,1V81z"/>
			</g>
		</g>
		<g>
			<g>
				<path d="M317.2,82c0,0.6-0.4,1-1,1h-9c-0.6,0-1-0.4-1-1v-9c0-0.6,0.4-1,1-1h9c0.6,0,1,0.4,1,1V82z"/>
			</g>
			<g>
				<path fill="#525354" d="M317.2,81c0,0.6-0.4,1-1,1h-9c-0.6,0-1-0.4-1-1v-9c0-0.6,0.4-1,1-1h9c0.6,0,1,0.4,1,1V81z"/>
			</g>
		</g>
		<g>
			<g>
				<path d="M330.2,82c0,0.6-0.4,1-1,1h-9c-0.6,0-1-0.4-1-1v-9c0-0.6,0.4-1,1-1h9c0.6,0,1,0.4,1,1V82z"/>
			</g>
			<g>
				<path fill="#525354" d="M330.2,81c0,0.6-0.4,1-1,1h-9c-0.6,0-1-0.4-1-1v-9c0-0.6,0.4-1,1-1h9c0.6,0,1,0.4,1,1V81z"/>
			</g>
		</g>
		<g>
			<g>
				<path d="M343.2,82c0,0.6-0.4,1-1,1h-9c-0.6,0-1-0.4-1-1v-9c0-0.6,0.4-1,1-1h9c0.6,0,1,0.4,1,1V82z"/>
			</g>
			<g>
				<path fill="#525354" d="M343.2,81c0,0.6-0.4,1-1,1h-9c-0.6,0-1-0.4-1-1v-9c0-0.6,0.4-1,1-1h9c0.6,0,1,0.4,1,1V81z"/>
			</g>
		</g>
		<g>
			<g>
				<path d="M356.2,82c0,0.6-0.4,1-1,1h-9c-0.6,0-1-0.4-1-1v-9c0-0.6,0.4-1,1-1h9c0.6,0,1,0.4,1,1V82z"/>
			</g>
			<g>
				<path fill="#525354" d="M356.2,81c0,0.6-0.4,1-1,1h-9c-0.6,0-1-0.4-1-1v-9c0-0.6,0.4-1,1-1h9c0.6,0,1,0.4,1,1V81z"/>
			</g>
		</g>
		<g>
			<g>
				<path d="M369.2,82c0,0.6-0.4,1-1,1h-9c-0.6,0-1-0.4-1-1v-9c0-0.6,0.4-1,1-1h9c0.6,0,1,0.4,1,1V82z"/>
			</g>
			<g>
				<path fill="#525354" d="M369.2,81c0,0.6-0.4,1-1,1h-9c-0.6,0-1-0.4-1-1v-9c0-0.6,0.4-1,1-1h9c0.6,0,1,0.4,1,1V81z"/>
			</g>
		</g>
		<g>
			<g>
				<path d="M382.2,82c0,0.6-0.4,1-1,1h-9c-0.6,0-1-0.4-1-1v-9c0-0.6,0.4-1,1-1h9c0.6,0,1,0.4,1,1V82z"/>
			</g>
			<g>
				<path fill="#525354" d="M382.2,81c0,0.6-0.4,1-1,1h-9c-0.6,0-1-0.4-1-1v-9c0-0.6,0.4-1,1-1h9c0.6,0,1,0.4,1,1V81z"/>
			</g>
		</g>
		<g>
			<g>
				<path d="M395.2,82c0,0.6-0.4,1-1,1h-9c-0.6,0-1-0.4-1-1v-9c0-0.6,0.4-1,1-1h9c0.6,0,1,0.4,1,1V82z"/>
			</g>
			<g>
				<path fill="#525354" d="M395.2,81c0,0.6-0.4,1-1,1h-9c-0.6,0-1-0.4-1-1v-9c0-0.6,0.4-1,1-1h9c0.6,0,1,0.4,1,1V81z"/>
			</g>
		</g>
		<g>
			<g>
				<path d="M417.2,82c0,0.6-0.4,1-1,1h-18c-0.6,0-1-0.4-1-1v-9c0-0.6,0.4-1,1-1h18c0.6,0,1,0.4,1,1V82z"/>
			</g>
			<g>
				<path fill="#525354" d="M417.2,81c0,0.6-0.4,1-1,1h-18c-0.6,0-1-0.4-1-1v-9c0-0.6,0.4-1,1-1h18c0.6,0,1,0.4,1,1V81z"/>
			</g>
		</g>
		<g>
			<g>
				<path d="M225.2,68c0,0.6-0.4,1-1,1h-8c-0.6,0-1-0.4-1-1v-3c0-0.6,0.4-1,1-1h8c0.6,0,1,0.4,1,1V68z"/>
			</g>
			<g>
				<path fill="#525354" d="M225.2,67c0,0.6-0.4,1-1,1h-8c-0.6,0-1-0.4-1-1v-3c0-0.6,0.4-1,1-1h8c0.6,0,1,0.4,1,1V67z"/>
			</g>
		</g>
		<g>
			<g>
				<path d="M237.2,68c0,0.6-0.4,1-1,1h-8c-0.6,0-1-0.4-1-1v-3c0-0.6,0.4-1,1-1h8c0.6,0,1,0.4,1,1V68z"/>
			</g>
			<g>
				<path fill="#525354" d="M237.2,67c0,0.6-0.4,1-1,1h-8c-0.6,0-1-0.4-1-1v-3c0-0.6,0.4-1,1-1h8c0.6,0,1,0.4,1,1V67z"/>
			</g>
		</g>
		<g>
			<g>
				<path d="M249.2,68c0,0.6-0.4,1-1,1h-8c-0.6,0-1-0.4-1-1v-3c0-0.6,0.4-1,1-1h8c0.6,0,1,0.4,1,1V68z"/>
			</g>
			<g>
				<path fill="#525354" d="M249.2,67c0,0.6-0.4,1-1,1h-8c-0.6,0-1-0.4-1-1v-3c0-0.6,0.4-1,1-1h8c0.6,0,1,0.4,1,1V67z"/>
			</g>
		</g>
		<g>
			<g>
				<path d="M261.2,68c0,0.6-0.4,1-1,1h-8c-0.6,0-1-0.4-1-1v-3c0-0.6,0.4-1,1-1h8c0.6,0,1,0.4,1,1V68z"/>
			</g>
			<g>
				<path fill="#525354" d="M261.2,67c0,0.6-0.4,1-1,1h-8c-0.6,0-1-0.4-1-1v-3c0-0.6,0.4-1,1-1h8c0.6,0,1,0.4,1,1V67z"/>
			</g>
		</g>
		<g>
			<g>
				<path d="M273.2,68c0,0.6-0.4,1-1,1h-8c-0.6,0-1-0.4-1-1v-3c0-0.6,0.4-1,1-1h8c0.6,0,1,0.4,1,1V68z"/>
			</g>
			<g>
				<path fill="#525354" d="M273.2,67c0,0.6-0.4,1-1,1h-8c-0.6,0-1-0.4-1-1v-3c0-0.6,0.4-1,1-1h8c0.6,0,1,0.4,1,1V67z"/>
			</g>
		</g>
		<g>
			<g>
				<path d="M285.2,68c0,0.6-0.4,1-1,1h-8c-0.6,0-1-0.4-1-1v-3c0-0.6,0.4-1,1-1h8c0.6,0,1,0.4,1,1V68z"/>
			</g>
			<g>
				<path fill="#525354" d="M285.2,67c0,0.6-0.4,1-1,1h-8c-0.6,0-1-0.4-1-1v-3c0-0.6,0.4-1,1-1h8c0.6,0,1,0.4,1,1V67z"/>
			</g>
		</g>
		<g>
			<g>
				<path d="M297.2,68c0,0.6-0.4,1-1,1h-8c-0.6,0-1-0.4-1-1v-3c0-0.6,0.4-1,1-1h8c0.6,0,1,0.4,1,1V68z"/>
			</g>
			<g>
				<path fill="#525354" d="M297.2,67c0,0.6-0.4,1-1,1h-8c-0.6,0-1-0.4-1-1v-3c0-0.6,0.4-1,1-1h8c0.6,0,1,0.4,1,1V67z"/>
			</g>
		</g>
		<g>
			<g>
				<path d="M309.2,68c0,0.6-0.4,1-1,1h-8c-0.6,0-1-0.4-1-1v-3c0-0.6,0.4-1,1-1h8c0.6,0,1,0.4,1,1V68z"/>
			</g>
			<g>
				<path fill="#525354" d="M309.2,67c0,0.6-0.4,1-1,1h-8c-0.6,0-1-0.4-1-1v-3c0-0.6,0.4-1,1-1h8c0.6,0,1,0.4,1,1V67z"/>
			</g>
		</g>
		<g>
			<g>
				<path d="M321.2,68c0,0.6-0.4,1-1,1h-8c-0.6,0-1-0.4-1-1v-3c0-0.6,0.4-1,1-1h8c0.6,0,1,0.4,1,1V68z"/>
			</g>
			<g>
				<path fill="#525354" d="M321.2,67c0,0.6-0.4,1-1,1h-8c-0.6,0-1-0.4-1-1v-3c0-0.6,0.4-1,1-1h8c0.6,0,1,0.4,1,1V67z"/>
			</g>
		</g>
		<g>
			<g>
				<path d="M333.2,68c0,0.6-0.4,1-1,1h-8c-0.6,0-1-0.4-1-1v-3c0-0.6,0.4-1,1-1h8c0.6,0,1,0.4,1,1V68z"/>
			</g>
			<g>
				<path fill="#525354" d="M333.2,67c0,0.6-0.4,1-1,1h-8c-0.6,0-1-0.4-1-1v-3c0-0.6,0.4-1,1-1h8c0.6,0,1,0.4,1,1V67z"/>
			</g>
		</g>
		<g>
			<g>
				<path d="M345.2,68c0,0.6-0.4,1-1,1h-8c-0.6,0-1-0.4-1-1v-3c0-0.6,0.4-1,1-1h8c0.6,0,1,0.4,1,1V68z"/>
			</g>
			<g>
				<path fill="#525354" d="M345.2,67c0,0.6-0.4,1-1,1h-8c-0.6,0-1-0.4-1-1v-3c0-0.6,0.4-1,1-1h8c0.6,0,1,0.4,1,1V67z"/>
			</g>
		</g>
		<g>
			<g>
				<path d="M357.2,68c0,0.6-0.4,1-1,1h-8c-0.6,0-1-0.4-1-1v-3c0-0.6,0.4-1,1-1h8c0.6,0,1,0.4,1,1V68z"/>
			</g>
			<g>
				<path fill="#525354" d="M357.2,67c0,0.6-0.4,1-1,1h-8c-0.6,0-1-0.4-1-1v-3c0-0.6,0.4-1,1-1h8c0.6,0,1,0.4,1,1V67z"/>
			</g>
		</g>
		<g>
			<g>
				<path d="M369.2,68c0,0.6-0.4,1-1,1h-8c-0.6,0-1-0.4-1-1v-3c0-0.6,0.4-1,1-1h8c0.6,0,1,0.4,1,1V68z"/>
			</g>
			<g>
				<path fill="#525354" d="M369.2,67c0,0.6-0.4,1-1,1h-8c-0.6,0-1-0.4-1-1v-3c0-0.6,0.4-1,1-1h8c0.6,0,1,0.4,1,1V67z"/>
			</g>
		</g>
		<g>
			<g>
				<path d="M381.2,68c0,0.6-0.4,1-1,1h-8c-0.6,0-1-0.4-1-1v-3c0-0.6,0.4-1,1-1h8c0.6,0,1,0.4,1,1V68z"/>
			</g>
			<g>
				<path fill="#525354" d="M381.2,67c0,0.6-0.4,1-1,1h-8c-0.6,0-1-0.4-1-1v-3c0-0.6,0.4-1,1-1h8c0.6,0,1,0.4,1,1V67z"/>
			</g>
		</g>
		<g>
			<g>
				<path d="M393.2,68c0,0.6-0.4,1-1,1h-8c-0.6,0-1-0.4-1-1v-3c0-0.6,0.4-1,1-1h8c0.6,0,1,0.4,1,1V68z"/>
			</g>
			<g>
				<path fill="#525354" d="M393.2,67c0,0.6-0.4,1-1,1h-8c-0.6,0-1-0.4-1-1v-3c0-0.6,0.4-1,1-1h8c0.6,0,1,0.4,1,1V67z"/>
			</g>
		</g>
		<g>
			<g>
				<path d="M405.2,68c0,0.6-0.4,1-1,1h-8c-0.6,0-1-0.4-1-1v-3c0-0.6,0.4-1,1-1h8c0.6,0,1,0.4,1,1V68z"/>
			</g>
			<g>
				<path fill="#525354" d="M405.2,67c0,0.6-0.4,1-1,1h-8c-0.6,0-1-0.4-1-1v-3c0-0.6,0.4-1,1-1h8c0.6,0,1,0.4,1,1V67z"/>
			</g>
		</g>
		<g>
			<g>
				<path d="M417.2,68c0,0.6-0.4,1-1,1h-8c-0.6,0-1-0.4-1-1v-3c0-0.6,0.4-1,1-1h8c0.6,0,1,0.4,1,1V68z"/>
			</g>
			<g>
				<path fill="#525354" d="M417.2,67c0,0.6-0.4,1-1,1h-8c-0.6,0-1-0.4-1-1v-3c0-0.6,0.4-1,1-1h8c0.6,0,1,0.4,1,1V67z"/>
			</g>
		</g>
		<g>
			<g>
				<path d="M404.2,134c0,0.6-0.4,1-1,1h-9c-0.6,0-1-0.4-1-1v-3c0-0.6,0.4-1,1-1h9c0.6,0,1,0.4,1,1V134z"/>
				<path d="M404.2,128c0,0.6-0.4,1-1,1h-9c-0.6,0-1-0.4-1-1v-3c0-0.6,0.4-1,1-1h9c0.6,0,1,0.4,1,1V128z"/>
				<path d="M417.2,134c0,0.6-0.4,1-1,1h-9c-0.6,0-1-0.4-1-1v-3c0-0.6,0.4-1,1-1h9c0.6,0,1,0.4,1,1V134z"/>
				<path d="M391.2,134c0,0.6-0.4,1-1,1h-9c-0.6,0-1-0.4-1-1v-3c0-0.6,0.4-1,1-1h9c0.6,0,1,0.4,1,1V134z"/>
			</g>
			<g>
				<g>
					<g>
						<path fill="#525354" d="M404.2,133c0,0.6-0.4,1-1,1h-9c-0.6,0-1-0.4-1-1v-3c0-0.6,0.4-1,1-1h9c0.6,0,1,0.4,1,1V133z"/>
					</g>
					<g>
						<path fill="#525354" d="M404.2,127c0,0.6-0.4,1-1,1h-9c-0.6,0-1-0.4-1-1v-3c0-0.6,0.4-1,1-1h9c0.6,0,1,0.4,1,1V127z"/>
					</g>
					<g>
						<path fill="#525354" d="M417.2,133c0,0.6-0.4,1-1,1h-9c-0.6,0-1-0.4-1-1v-3c0-0.6,0.4-1,1-1h9c0.6,0,1,0.4,1,1V133z"/>
					</g>
					<g>
						<path fill="#525354" d="M391.2,133c0,0.6-0.4,1-1,1h-9c-0.6,0-1-0.4-1-1v-3c0-0.6,0.4-1,1-1h9c0.6,0,1,0.4,1,1V133z"/>
					</g>
				</g>
			</g>
		</g>
		<g>
			<g>
				<path d="M226.2,134c0,0.6-0.4,1-1,1h-9c-0.6,0-1-0.4-1-1v-9c0-0.6,0.4-1,1-1h9c0.6,0,1,0.4,1,1V134z"/>
			</g>
			<g>
				<path fill="#525354" d="M226.2,133c0,0.6-0.4,1-1,1h-9c-0.6,0-1-0.4-1-1v-9c0-0.6,0.4-1,1-1h9c0.6,0,1,0.4,1,1V133z"/>
			</g>
		</g>
		<g>
			<g>
				<path d="M239.2,134c0,0.6-0.4,1-1,1h-9c-0.6,0-1-0.4-1-1v-9c0-0.6,0.4-1,1-1h9c0.6,0,1,0.4,1,1V134z"/>
			</g>
			<g>
				<path fill="#525354" d="M239.2,133c0,0.6-0.4,1-1,1h-9c-0.6,0-1-0.4-1-1v-9c0-0.6,0.4-1,1-1h9c0.6,0,1,0.4,1,1V133z"/>
			</g>
		</g>
		<g>
			<g>
				<path d="M252.2,134c0,0.6-0.4,1-1,1h-9c-0.6,0-1-0.4-1-1v-9c0-0.6,0.4-1,1-1h9c0.6,0,1,0.4,1,1V134z"/>
			</g>
			<g>
				<path fill="#525354" d="M252.2,133c0,0.6-0.4,1-1,1h-9c-0.6,0-1-0.4-1-1v-9c0-0.6,0.4-1,1-1h9c0.6,0,1,0.4,1,1V133z"/>
			</g>
		</g>
		<g>
			<g>
				<path d="M377.2,134c0,0.6-0.4,1-1,1h-9c-0.6,0-1-0.4-1-1v-9c0-0.6,0.4-1,1-1h9c0.6,0,1,0.4,1,1V134z"/>
			</g>
			<g>
				<path fill="#525354" d="M377.2,133c0,0.6-0.4,1-1,1h-9c-0.6,0-1-0.4-1-1v-9c0-0.6,0.4-1,1-1h9c0.6,0,1,0.4,1,1V133z"/>
			</g>
		</g>
		<g>
			<g>
				<path d="M268.2,134c0,0.6-0.4,1-1,1h-12c-0.6,0-1-0.4-1-1v-9c0-0.6,0.4-1,1-1h12c0.6,0,1,0.4,1,1V134z"/>
			</g>
			<g>
				<path fill="#525354" d="M268.2,133c0,0.6-0.4,1-1,1h-12c-0.6,0-1-0.4-1-1v-9c0-0.6,0.4-1,1-1h12c0.6,0,1,0.4,1,1V133z"/>
			</g>
		</g>
		<g>
			<g>
				<path d="M364.2,134c0,0.6-0.4,1-1,1h-12c-0.6,0-1-0.4-1-1v-9c0-0.6,0.4-1,1-1h12c0.6,0,1,0.4,1,1V134z"/>
			</g>
			<g>
				<path fill="#525354" d="M364.2,133c0,0.6-0.4,1-1,1h-12c-0.6,0-1-0.4-1-1v-9c0-0.6,0.4-1,1-1h12c0.6,0,1,0.4,1,1V133z"/>
			</g>
		</g>
		<g>
			<g>
				<path d="M245.2,121c0,0.6-0.4,1-1,1h-28c-0.6,0-1-0.4-1-1v-9c0-0.6,0.4-1,1-1h28c0.6,0,1,0.4,1,1V121z"/>
			</g>
			<g>
				<path fill="#525354" d="M245.2,120c0,0.6-0.4,1-1,1h-28c-0.6,0-1-0.4-1-1v-9c0-0.6,0.4-1,1-1h28c0.6,0,1,0.4,1,1V120z"/>
			</g>
		</g>
		<g>
			<g>
				<path d="M238.2,108c0,0.6-0.4,1-1,1h-21c-0.6,0-1-0.4-1-1v-9c0-0.6,0.4-1,1-1h21c0.6,0,1,0.4,1,1V108z"/>
			</g>
			<g>
				<path fill="#525354" d="M238.2,107c0,0.6-0.4,1-1,1h-21c-0.6,0-1-0.4-1-1v-9c0-0.6,0.4-1,1-1h21c0.6,0,1,0.4,1,1V107z"/>
			</g>
		</g>
		<g>
			<g>
				<path d="M417.2,121c0,0.6-0.4,1-1,1h-25c-0.6,0-1-0.4-1-1v-9c0-0.6,0.4-1,1-1h25c0.6,0,1,0.4,1,1V121z"/>
			</g>
			<g>
				<path fill="#525354" d="M417.2,120c0,0.6-0.4,1-1,1h-25c-0.6,0-1-0.4-1-1v-9c0-0.6,0.4-1,1-1h25c0.6,0,1,0.4,1,1V120z"/>
			</g>
		</g>
		<g>
			<g>
				<path d="M417.2,108c0,0.6-0.4,1-1,1h-19c-0.6,0-1-0.4-1-1v-9c0-0.6,0.4-1,1-1h19c0.6,0,1,0.4,1,1V108z"/>
			</g>
			<g>
				<path fill="#525354" d="M417.2,107c0,0.6-0.4,1-1,1h-19c-0.6,0-1-0.4-1-1v-9c0-0.6,0.4-1,1-1h19c0.6,0,1,0.4,1,1V107z"/>
			</g>
		</g>
		<g>
			<g>
				<path d="M235.2,95c0,0.6-0.4,1-1,1h-18c-0.6,0-1-0.4-1-1v-9c0-0.6,0.4-1,1-1h18c0.6,0,1,0.4,1,1V95z"/>
			</g>
			<g>
				<path fill="#525354" d="M235.2,94c0,0.6-0.4,1-1,1h-18c-0.6,0-1-0.4-1-1v-9c0-0.6,0.4-1,1-1h18c0.6,0,1,0.4,1,1V94z"/>
			</g>
		</g>
	</g>
	<g>
		<path fill="#55575B" d="M446.6,35.6c-0.9,2.3-3.7,4.4-6.1,4.4H187.4c-2.5,0-5.2-2.1-6.1-4.4L171,9.3C170.1,7,171.4,5,173.9,5h280
			c2.5,0,3.8,2,2.9,4.3L446.6,35.6z"/>
	</g>
	<g>
		<path fill="#292A2B" d="M449.3,36.1c-0.8,2-3.3,3.9-5.5,3.9H185.7c-2.2,0-4.7-1.9-5.5-3.9L169.6,8.8c-0.8-2,0.3-3.8,2.5-3.8h285.4
			c2.2,0,3.3,1.8,2.5,3.8L449.3,36.1z"/>
	</g>
	<circle fill="#D6D7D8" stroke="#BFBFBF" stroke-width="0.15" stroke-miterlimit="10" cx="439.9" cy="49.3" r="3.8"/>
	<circle fill="none" stroke="#545454" stroke-width="0.25" stroke-miterlimit="10" cx="439.9" cy="49.3" r="1.8"/>
	<rect x="438.8" y="46.7" fill="#D6D7D8" width="2.1" height="2.2"/>
	<line fill="none" stroke="#545454" stroke-width="0.25" stroke-miterlimit="10" x1="439.8" y1="49.5" x2="439.8" y2="46.9"/>
	<g>
		<defs>
			<polygon id="SVGID_5_" points="444.7,34 186.7,34 176.5,11 453.6,11 			"/>
		</defs>
		<use xlink:href="#SVGID_5_"  overflow="visible" fill="#EDEEEF"/>
		<clipPath id="SVGID_6_">
			<use xlink:href="#SVGID_5_"  overflow="visible"/>
		</clipPath>
		<path opacity="0.7" clip-path="url(#SVGID_6_)" fill="#F7F8F9" d="M268.5,5.7L211,63.2h215.2l56.9-56.9
			C483.1,6.2,267.5,5.7,268.5,5.7z"/>
		<path clip-path="url(#SVGID_6_)" fill="#EDEEEF" d="M295.5,0.8L260,36.2h7.2L300.5,3C300.5,3,296,0.8,295.5,0.8z"/>
	</g>
</g>
<g id="book">
	<g>
		<g>
			<g opacity="0.75">
				<path fill="#586372" d="M0.2,335.4l1.4,3.4l134.5,0.1c0,0,0.4,0,0.6-0.1c0.2-0.1,0.1-0.6,0.1-0.6l0.6-182.2l-1.8-1.9"/>
			</g>
			<g>
				<path fill="#B34956" d="M0.2,334.4l1.4,3.4l134.5,0.1c0,0,0.4,0,0.6-0.1c0.2-0.1,0.1-0.6,0.1-0.6l0.6-182.2l-1.8-1.9"/>
			</g>
		</g>
		<g>
			<polyline fill="#FFFFFF" points="1.1,334.1 2.3,337 137.2,337 137.3,154.7 136.2,153.2 			"/>
		</g>
		<g>
			<linearGradient id="SVGID_7_" gradientUnits="userSpaceOnUse" x1="68.2478" y1="334.7044" x2="68.2478" y2="152.9189">
				<stop  offset="0" style="stop-color:#BD4052"/>
				<stop  offset="1" style="stop-color:#BC4956"/>
			</linearGradient>
			<path fill="url(#SVGID_7_)" d="M136.4,333.7c0,0.5-0.5,1-1,1H1.1c-0.6,0-1-0.5-1-1V153.9c0-0.6,0.4-1,1-1h134.3c0.5,0,1,0.4,1,1
				V333.7z"/>
			<path fill="none" stroke="#752A37" stroke-width="0.15" stroke-miterlimit="10" d="M136.4,333.7c0,0.5-0.5,1-1,1H1.1
				c-0.6,0-1-0.5-1-1V153.9c0-0.6,0.4-1,1-1h134.3c0.5,0,1,0.4,1,1V333.7z"/>
		</g>
		<g opacity="0.7">
			<path fill="#E8DFE0" d="M107.8,239.6h2v0.4h-1.5v1.2h1.4v0.4h-1.4v1.7h-0.5V239.6z"/>
			<path fill="#E8DFE0" d="M110.6,242.2l-0.4,1.2h-0.5l1.3-3.8h0.6l1.3,3.8h-0.5l-0.4-1.2H110.6z M111.8,241.8l-0.4-1.1
				c-0.1-0.2-0.1-0.5-0.2-0.7h0c-0.1,0.2-0.1,0.5-0.2,0.7l-0.4,1.1H111.8z"/>
			<path fill="#E8DFE0" d="M113.4,239.6c0.2,0,0.5-0.1,0.9-0.1c0.5,0,0.8,0.1,1,0.3c0.2,0.1,0.3,0.4,0.3,0.7c0,0.4-0.2,0.7-0.6,0.8
				v0c0.4,0.1,0.8,0.4,0.8,0.9c0,0.3-0.1,0.6-0.3,0.8c-0.3,0.2-0.7,0.4-1.3,0.4c-0.3,0-0.6,0-0.7,0V239.6z M113.9,241.2h0.4
				c0.5,0,0.8-0.3,0.8-0.6c0-0.4-0.3-0.6-0.8-0.6c-0.2,0-0.3,0-0.4,0V241.2z M113.9,243c0.1,0,0.2,0,0.4,0c0.5,0,1-0.2,1-0.7
				c0-0.5-0.4-0.7-1-0.7h-0.4V243z"/>
			<path fill="#E8DFE0" d="M116.4,239.6c0.2,0,0.6-0.1,0.9-0.1c0.5,0,0.8,0.1,1.1,0.3c0.2,0.2,0.3,0.4,0.3,0.7c0,0.5-0.3,0.8-0.7,1
				v0c0.3,0.1,0.5,0.4,0.5,0.8c0.1,0.5,0.2,0.9,0.3,1h-0.5c-0.1-0.1-0.1-0.4-0.2-0.9c-0.1-0.5-0.3-0.7-0.7-0.7h-0.5v1.6h-0.5V239.6z
				 M116.8,241.4h0.5c0.5,0,0.8-0.3,0.8-0.7c0-0.5-0.3-0.7-0.9-0.7c-0.2,0-0.4,0-0.5,0V241.4z"/>
			<path fill="#E8DFE0" d="M119.8,239.6v3.8h-0.5v-3.8H119.8z"/>
			<path fill="#E8DFE0" d="M121.2,242.2l-0.4,1.2h-0.5l1.3-3.8h0.6l1.3,3.8h-0.5l-0.4-1.2H121.2z M122.4,241.8l-0.4-1.1
				c-0.1-0.2-0.1-0.5-0.2-0.7h0c-0.1,0.2-0.1,0.5-0.2,0.7l-0.4,1.1H122.4z"/>
			<path fill="#E8DFE0" d="M124,243.3v-3.8h0.5l1.2,1.9c0.3,0.4,0.5,0.8,0.7,1.2l0,0c0-0.5-0.1-1-0.1-1.5v-1.6h0.5v3.8h-0.5
				l-1.2-1.9c-0.3-0.4-0.5-0.8-0.7-1.3l0,0c0,0.5,0,0.9,0,1.5v1.6H124z"/>
			<path fill="#E8DFE0" d="M130.8,241.4c0,1.3-0.8,2-1.7,2c-1,0-1.7-0.8-1.7-1.9c0-1.2,0.7-2,1.7-2
				C130.1,239.5,130.8,240.3,130.8,241.4z M127.9,241.5c0,0.8,0.4,1.5,1.2,1.5c0.8,0,1.2-0.7,1.2-1.6c0-0.7-0.4-1.5-1.2-1.5
				C128.3,239.9,127.9,240.7,127.9,241.5z"/>
		</g>
	</g>
</g>
<g id="coffee">
	<g>
		<g>
			<g>
				<g opacity="0.75">
					
						<ellipse transform="matrix(0.9952 9.831034e-02 -9.831034e-02 0.9952 14.0856 -49.2412)" fill="#586372" cx="506.7" cy="118.3" rx="30.3" ry="30.2"/>
					
						<ellipse transform="matrix(0.9952 9.831034e-02 -9.831034e-02 0.9952 14.0856 -49.2412)" fill="none" stroke="#586372" stroke-width="0.25" stroke-miterlimit="10" cx="506.7" cy="118.3" rx="30.3" ry="30.2"/>
				</g>
				<g>
					
						<ellipse transform="matrix(0.9952 9.831034e-02 -9.831034e-02 0.9952 13.9872 -49.2461)" fill="#E2E2E2" cx="506.7" cy="117.3" rx="30.3" ry="30.2"/>
					
						<ellipse transform="matrix(0.9952 9.831034e-02 -9.831034e-02 0.9952 13.9872 -49.2461)" fill="none" stroke="#091011" stroke-width="0.25" stroke-miterlimit="10" cx="506.7" cy="117.3" rx="30.3" ry="30.2"/>
				</g>
			</g>
			
				<ellipse transform="matrix(0.9938 0.1113 -0.1113 0.9938 15.6996 -55.7693)" fill="#FFFFFF" cx="507.2" cy="112.7" rx="28.3" ry="25.2"/>
			
				<linearGradient id="SVGID_8_" gradientUnits="userSpaceOnUse" x1="479.721" y1="115.3755" x2="534.8846" y2="115.3755" gradientTransform="matrix(1.0291 2.876978e-03 2.876978e-03 1.0003 -15.7935 -1.5602)">
				<stop  offset="0" style="stop-color:#D1D8D2"/>
				<stop  offset="0.2896" style="stop-color:#BFC6C4"/>
				<stop  offset="0.7207" style="stop-color:#AAB0B3"/>
				<stop  offset="1" style="stop-color:#A2A8AD"/>
			</linearGradient>
			<path fill="url(#SVGID_8_)" d="M534.9,118.1c-1.5,14.7-15.3,25.4-30.9,23.8c-15.6-1.5-27.1-14.7-25.6-29.4s15.3-25.4,30.9-23.8
				C524.9,90.2,536.3,103.4,534.9,118.1z"/>
			
				<ellipse transform="matrix(0.9952 9.831008e-02 -9.831008e-02 0.9952 13.9021 -49.2459)" fill="#E2E2E2" cx="506.7" cy="116.4" rx="28.5" ry="26.5"/>
			
				<ellipse transform="matrix(0.9952 9.831034e-02 -9.831034e-02 0.9952 13.8687 -49.2352)" fill="#FFFFFF" stroke="#5E6A6D" stroke-width="0.25" stroke-miterlimit="10" cx="506.5" cy="116.1" rx="26.5" ry="26.4"/>
			<linearGradient id="SVGID_9_" gradientUnits="userSpaceOnUse" x1="485.6749" y1="116.1109" x2="527.3966" y2="116.1109">
				<stop  offset="0" style="stop-color:#F3F5F5"/>
				<stop  offset="1" style="stop-color:#F8FCFC"/>
			</linearGradient>
			<path fill="url(#SVGID_9_)" d="M527.3,118.2c-1.1,11.4-11.3,19.8-22.8,18.7c-11.5-1.1-19.8-11.3-18.7-22.8s11.3-19.8,22.8-18.7
				S528.4,106.7,527.3,118.2z"/>
			<linearGradient id="SVGID_10_" gradientUnits="userSpaceOnUse" x1="502.9931" y1="145.3305" x2="506.6305" y2="115.7066">
				<stop  offset="0" style="stop-color:#D1D8D2"/>
				<stop  offset="0.2896" style="stop-color:#BFC6C4"/>
				<stop  offset="0.7207" style="stop-color:#AAB0B3"/>
				<stop  offset="1" style="stop-color:#A2A8AD"/>
			</linearGradient>
			<path fill="url(#SVGID_10_)" d="M480.2,113.7c-1.4,14.5,9.2,27.5,23.7,28.9c14.5,1.4,27.5-9.2,28.9-23.7l-0.3,3
				c-1.4,14.4-14.4,24.9-28.9,23.5c-14.5-1.4-25.2-14.3-23.8-28.7L480.2,113.7z"/>
			<path fill="#EFEFEF" d="M523.2,127.9c-4.2,5.3-11.1,8.5-18.6,7.8c-7.5-0.7-13.7-5.2-16.8-11.4L523.2,127.9z"/>
			<linearGradient id="SVGID_11_" gradientUnits="userSpaceOnUse" x1="504.8054" y1="131.3511" x2="505.6637" y2="125.2435">
				<stop  offset="1.346983e-03" style="stop-color:#DDDFDE"/>
				<stop  offset="1" style="stop-color:#A8B3B1"/>
			</linearGradient>
			<path fill="url(#SVGID_11_)" d="M487.9,124.2l35.3,3.5c0,0-3.3,4.6-4.7,4.4c-1.4-0.1-27.3-2.7-27.3-2.7S488.6,125.4,487.9,124.2z
				"/>
			
				<ellipse transform="matrix(0.9952 9.831034e-02 -9.831034e-02 0.9952 13.802 -49.2452)" fill="none" stroke="#8F9899" stroke-width="0.25" stroke-miterlimit="10" cx="506.6" cy="115.4" rx="20.9" ry="20.3"/>
			<linearGradient id="SVGID_12_" gradientUnits="userSpaceOnUse" x1="504.7769" y1="140.1754" x2="505.0687" y2="137.7988">
				<stop  offset="0" style="stop-color:#5C4537"/>
				<stop  offset="0.2724" style="stop-color:#533D32"/>
				<stop  offset="0.7213" style="stop-color:#3A2725"/>
				<stop  offset="0.9987" style="stop-color:#27171B"/>
			</linearGradient>
			<path fill="url(#SVGID_12_)" stroke="#6B878E" stroke-width="0.25" stroke-miterlimit="10" d="M508.3,139.3
				c-0.1,0.6-0.6,1.1-1.3,1l-4.4-0.4c-0.6-0.1-1.1-0.6-1-1.3l0,0c0.1-0.6,0.6-1.1,1.3-1l4.4,0.4
				C507.9,138.1,508.3,138.7,508.3,139.3L508.3,139.3z"/>
			<linearGradient id="SVGID_13_" gradientUnits="userSpaceOnUse" x1="505.5564" y1="123.9516" x2="509.0789" y2="95.263">
				<stop  offset="0" style="stop-color:#D1D8D2"/>
				<stop  offset="0.3092" style="stop-color:#CCD4CF"/>
				<stop  offset="0.6563" style="stop-color:#BFC7C5"/>
				<stop  offset="1" style="stop-color:#AAB3B5"/>
			</linearGradient>
			<path fill="url(#SVGID_13_)" d="M508.6,95.2c-11.5-1.1-21.7,7-22.8,18.2c-0.3,2.9,0.1,5.7,0.9,8.3c-0.6-2.3-0.9-4.8-0.6-7.3
				c1.1-11.2,11.2-19.3,22.5-18.2c11.3,1.1,19.6,11.1,18.5,22.2c-0.1,1.3-0.4,2.5-0.7,3.7c0.5-1.5,0.9-3,1-4.6
				C528.5,106.3,520.1,96.3,508.6,95.2z"/>
		</g>
		<g opacity="0.7">
			<g>
				<g>
					<path fill="#B34956" d="M501.7,107.6c-0.5,0.7-1.4,0.7-2.2,0.7c0.1,0.3,0.2,0.5,0.3,0.8c0.2-1.6,0.7-3.1,0.8-4.7
						c0-0.5-0.5-1.2-0.5-0.3c-0.1,1.6-0.6,3.1-0.8,4.7c0,0.2,0,0.8,0.3,0.8c0.9,0,1.9-0.1,2.5-0.9
						C502.2,108.4,502,107.2,501.7,107.6L501.7,107.6z"/>
				</g>
			</g>
			<g>
				<g>
					<path fill="#B34956" d="M497.7,106.1c0.3,2.2,1.6,4,2.1,6.1c0.2,0.8,0.6-0.2,0.5-0.6c-0.5-2-1.8-3.7-2-5.8
						C498.2,105,497.7,105.6,497.7,106.1L497.7,106.1z"/>
				</g>
			</g>
		</g>
		<g opacity="0.7">
			<g>
				<path fill="#B34956" d="M505.3,102.5c-2.4-2.4-6.9-1.9-9.1,0.3c-2,2-2.4,5.8-1,8.3c2.3,3.9,6.7,4.1,9.9,1.2
					c2.6-2.4,1.9-6-0.6-8.2c-0.2-0.1-0.3,0.6-0.1,0.7c3.8,3.3,1.2,7.4-2.7,8.6c-2.9,0.9-5.4-0.8-6.6-3.4c-1.4-3,0.3-6.7,3.2-7.9
					c2-0.8,5.2-0.6,6.8,1C505.3,103.4,505.4,102.7,505.3,102.5L505.3,102.5z"/>
			</g>
		</g>
	</g>
</g>
<g id="Layer_7">
	
		<linearGradient id="SVGID_14_" gradientUnits="userSpaceOnUse" x1="519.1927" y1="120.5325" x2="521.6923" y2="100.1757" gradientTransform="matrix(-0.7555 0.454 -0.411 -0.6839 939.8519 -53.5234)">
		<stop  offset="0" style="stop-color:#F0F1F2;stop-opacity:0.3"/>
		<stop  offset="0.9492" style="stop-color:#F7F9F9;stop-opacity:1.525494e-02"/>
		<stop  offset="1" style="stop-color:#F8FAFA;stop-opacity:0"/>
	</linearGradient>
	<path fill="url(#SVGID_14_)" d="M493.4,112.1c-2.3-3.9-0.7-9.1,3.7-11.8c4.4-2.6,9.8-1.6,12.1,2.2c2.3,3.9,0.7,9.1-3.7,11.8
		C501.1,116.9,495.7,115.9,493.4,112.1z"/>
</g>
<g id="sketch_books">
	<g>
		<g opacity="0.75">
			<path fill="#303030" d="M573.2,340.5c0,1.6-1.2,3-2.9,3l-100.5-0.8c-1.6,0-3-1.4-2.9-3l1.6-147.7c0-1.6,1.4-3,3-3h98.9
				c1.6,0,2.7,1.4,2.7,3V340.5z"/>
		</g>
		<g>
			<path fill="#343535" d="M574.2,339.5c0,1.6-1.2,3-2.9,3l-100.5-0.8c-1.6,0-3-1.4-2.9-3l1.6-147.7c0-1.6,1.4-3,3-3h98.9
				c1.6,0,2.7,1.4,2.7,3V339.5z"/>
		</g>
	</g>
	<g>
		<g opacity="0.75">
			<path fill="#303030" d="M671.8,342.1c0,1.6-1.4,3-3,2.9l-100.7-1.8c-1.6,0-3-1.4-3-3.1l1.6-148.2c0-1.6,1.4-3,3-3.1l100.4-2.5
				c1.6,0,3,1.3,3,2.9L671.8,342.1z"/>
		</g>
		<g>
			<path fill="#343535" d="M670.8,341.1c0,1.6-1.4,3-3,2.9l-100.7-1.8c-1.6,0-3-1.4-3-3.1l1.6-148.2c0-1.6,1.4-3,3-3.1l100.4-2.5
				c1.6,0,3,1.3,3,2.9L670.8,341.1z"/>
		</g>
	</g>
	<path fill="#D8CFB8" stroke="#FFFDF8" stroke-width="0.25" stroke-miterlimit="10" d="M475.1,189.6c0,0-4-1.9-4,3.7
		s-1.3,141.9-1.3,141.9s-1.3,4.8,4.5,4.8c5.9,0,98.5,1.3,98.5,1.3l-6.7-150.7L475.1,189.6"/>
	<path fill="#D8CFB8" stroke="#FFFDF8" stroke-width="0.25" stroke-miterlimit="10" d="M476.7,188.8c0,0-4-1.9-4,3.7
		s-1.3,141.9-1.3,141.9s-1.3,4.8,4.5,4.8c5.9,0,95.3,1.3,95.3,1.3l-3.5-150.7L476.7,188.8"/>
	<linearGradient id="SVGID_15_" gradientUnits="userSpaceOnUse" x1="473.4172" y1="263.5353" x2="571.5446" y2="263.5353">
		<stop  offset="0" style="stop-color:#FCF8EB"/>
		<stop  offset="0.4266" style="stop-color:#F8F3E7"/>
		<stop  offset="0.9411" style="stop-color:#ECE4DA"/>
		<stop  offset="1" style="stop-color:#EAE2D8"/>
	</linearGradient>
	<path fill="url(#SVGID_15_)" stroke="#FFFFFF" stroke-width="0.5" stroke-miterlimit="10" d="M571.3,189l-90.6-1.6
		c0,0-5.6-1.3-5.8,4.7c-0.3,6.1-1.3,142-1.3,142s-1.3,4.2,4.5,4.5s93.5,1.1,93.5,1.1L571.3,189z"/>
	<path fill="#D8CFB8" stroke="#FFFDF8" stroke-width="0.25" stroke-miterlimit="10" d="M664.2,188c0,0,2.4-1.1,3.7-0.5
		s2.4,0.8,2.7,4c0.3,3.2-0.5,146.5-0.5,146.5s0.8,3.7-4.3,4.5c-5.1,0.8-94.5-1.3-94.5-1.3l-1.9-106.8L664.2,188z"/>
	<linearGradient id="SVGID_16_" gradientUnits="userSpaceOnUse" x1="669.2924" y1="264.3956" x2="568.7041" y2="264.3956">
		<stop  offset="0" style="stop-color:#FCF8EB"/>
		<stop  offset="0.451" style="stop-color:#F8F3E7"/>
		<stop  offset="0.9949" style="stop-color:#EDE4DA"/>
		<stop  offset="1" style="stop-color:#EDE4DA"/>
	</linearGradient>
	<path fill="url(#SVGID_16_)" stroke="#FFFFFF" stroke-width="0.5" stroke-miterlimit="10" d="M568.7,189.1l95-1.9
		c0,0,4.8-0.5,5.3,4.5c0.7,6.8,0,144.1-1.6,146.2s1.3,3.4-8.5,3.7c-9.8,0.3-87.7-1.8-87.7-1.8L568.7,189.1z"/>
	<path fill="#8E2D3F" stroke="#591E2B" stroke-width="0.25" stroke-miterlimit="10" d="M566.8,187.2c-0.4,0-0.7,1.5-0.7,1.5l5.1-0.1
		l0.4-1.3C571.5,187.2,567.5,187.3,566.8,187.2z"/>
	<linearGradient id="SVGID_17_" gradientUnits="userSpaceOnUse" x1="566.4849" y1="269.2304" x2="574.0065" y2="269.2304">
		<stop  offset="0" style="stop-color:#AC4252"/>
		<stop  offset="1" style="stop-color:#B34956"/>
	</linearGradient>
	<path fill="url(#SVGID_17_)" stroke="#752A37" stroke-miterlimit="10" d="M566.5,187.5c0,0,0.5,49,0.5,65.5l1.9,98.3l2.2-1.6
		l2.9,1.6c0,0-1.5-72.2-1.9-96.7c-0.3-16.7-0.6-67.4-0.6-67.4S568,187.2,566.5,187.5z"/>
</g>
<g id="sketches">
	<path fill="none" stroke="#7C7B79" stroke-width="0.5" stroke-miterlimit="10" d="M584.1,198.7c0.5,5.5,0.8,17.1,1.1,19.4"/>
	<path fill="none" stroke="#7C7B79" stroke-width="0.5" stroke-miterlimit="10" d="M584.6,198.7c6.3-0.5,17.7-1.5,21.6-0.5"/>
	<path fill="none" stroke="#7C7B79" stroke-width="0.5" stroke-miterlimit="10" d="M607,199.2c0,5.5,0,14.7,0,18.1"/>
	<path fill="none" stroke="#7C7B79" stroke-width="0.5" stroke-miterlimit="10" d="M585.4,202.1c6.8-0.3,15.2-0.7,21-0.8"/>
	<path fill="none" stroke="#7C7B79" stroke-width="0.5" stroke-miterlimit="10" d="M587.3,205.3c0,0.6,0,4.6,0,2.9"/>
	<path fill="none" stroke="#7C7B79" stroke-width="0.5" stroke-miterlimit="10" d="M587.8,205.6c2.8,0,10.3-0.2,10.9-0.3"/>
	<path fill="none" stroke="#7C7B79" stroke-width="0.5" stroke-miterlimit="10" d="M598.2,205.6c0.2,1.1,0.1,3.2,0,3.5"/>
	<path fill="none" stroke="#7C7B79" stroke-width="0.5" stroke-miterlimit="10" d="M587.3,209.3c2.6,0,10-0.8,10.1-0.8"/>
	<path fill="none" stroke="#7C7B79" stroke-width="0.5" stroke-miterlimit="10" d="M600.8,205.1c0.2,3,0.5,6.6,0.8,9.3"/>
	<path fill="none" stroke="#7C7B79" stroke-width="0.5" stroke-miterlimit="10" d="M601.1,205.1c1.1-0.1,2.4,0,3.2,0.3"/>
	<path fill="none" stroke="#7C7B79" stroke-width="0.5" stroke-miterlimit="10" d="M604.3,205.1c0.2,2.8,0.3,6,0.3,9.1"/>
	<path fill="none" stroke="#7C7B79" stroke-width="0.5" stroke-miterlimit="10" d="M601.6,214.4c0.7,0.1,2.3,0,2.7,0"/>
	<path fill="none" stroke="#7C7B79" stroke-width="0.5" stroke-miterlimit="10" d="M588.1,210.9c-0.1,1.3-0.1,2.8,0.3,4"/>
	<path fill="none" stroke="#7C7B79" stroke-width="0.5" stroke-miterlimit="10" d="M588.1,211.2c0.9-0.3,1.9-0.5,2.9-0.5"/>
	<path fill="none" stroke="#7C7B79" stroke-width="0.5" stroke-miterlimit="10" d="M590.7,210.9c0.3,1.7,0.4,3.5,0.3,5.1"/>
	<path fill="none" stroke="#7C7B79" stroke-width="0.5" stroke-miterlimit="10" d="M588.1,214.1c0.2,0.6,0.3,1.8,0.3,1.9"/>
	<path fill="none" stroke="#7C7B79" stroke-width="0.5" stroke-miterlimit="10" d="M588.3,216.5c0.9-0.2,1.8-0.4,2.7-0.5"/>
	<path fill="none" stroke="#7C7B79" stroke-width="0.5" stroke-miterlimit="10" d="M593.4,211.2c0.2,2.1,0.6,4.2,0,4"/>
	<path fill="none" stroke="#7C7B79" stroke-width="0.5" stroke-miterlimit="10" d="M593.1,211.4c1.6-0.3,2.9,0.4,3.9-0.2
		c-0.1,1.3,0.4,3.1,0.1,4.4"/>
	<path fill="none" stroke="#7C7B79" stroke-width="0.5" stroke-miterlimit="10" d="M593.1,216.5c0.9,0.1,1.8,0,2.7-0.3"/>
	<path fill="none" stroke="#7C7B79" stroke-width="0.5" stroke-miterlimit="10" d="M635.2,199.5c-12.3-3.3-19,15.2-5.5,19.8
		c15.3,5.2,20.5-21.8,3.6-17.4"/>
	<path fill="none" stroke="#7C7B79" stroke-width="0.5" stroke-miterlimit="10" d="M627.5,206.1c0.1,1.7,0.7,8.6,0.5,7.5"/>
	<path fill="none" stroke="#7C7B79" stroke-width="0.5" stroke-miterlimit="10" d="M630.4,206.4c-0.7,1.4-1.2,3.5-2.3,5
		c0.8,0.2,5.6,1.4,3.6,1.3"/>
	<path fill="none" stroke="#7C7B79" stroke-width="0.5" stroke-miterlimit="10" d="M633.9,206.1c0,1.6,0.5,8.6,0,6.7"/>
	<path fill="none" stroke="#7C7B79" stroke-width="0.5" stroke-miterlimit="10" d="M634.4,209.8c1,0.3,2,0.2,2.9-0.3"/>
	<path fill="none" stroke="#7C7B79" stroke-width="0.5" stroke-miterlimit="10" d="M637.1,205.6c-0.2,2.4-0.1,5.7,0.3,7.7"/>
	<path fill="none" stroke="#7C7B79" stroke-width="0.5" stroke-miterlimit="10" d="M585.9,242.1c0.7,13.8,0.5,46.8,1.3,60.7"/>
	<path fill="none" stroke="#7C7B79" stroke-width="0.5" stroke-miterlimit="10" d="M585.9,242.1c7.1,0.8,16-1,23.5-2.1
		c11.8-1.7,27,0.1,36.7-0.6"/>
	<path fill="none" stroke="#7C7B79" stroke-width="0.5" stroke-miterlimit="10" d="M647.4,240.2c0,7.8,2.1,55.4,2.4,59.1"/>
	<path fill="none" stroke="#7C7B79" stroke-width="0.5" stroke-miterlimit="10" d="M604.8,221c-0.5,1-0.4,2.2,0.3,3.2"/>
	<path fill="none" stroke="#7C7B79" stroke-width="0.5" stroke-miterlimit="10" d="M604.8,221c0.7,0.5,2.2,1.1,2.4,1.1"/>
	<path fill="none" stroke="#7C7B79" stroke-width="0.5" stroke-miterlimit="10" d="M605.4,224c0.7-0.5,1.5-1.3,1.9-1.9"/>
	<path fill="none" stroke="#7C7B79" stroke-width="0.5" stroke-miterlimit="10" d="M606.4,223.4c1.4,1.3,3.3,2.3,4.8,2.7"/>
	<path fill="none" stroke="#7C7B79" stroke-width="0.5" stroke-miterlimit="10" d="M613.9,226.1c0.6,1.4-0.2,1.9,1.5-1
		c0.3,0.7,0.1,1.9,0.6,2.5c0.2-0.3,1.5-1.9,1.9-2.2c0.3,2.1,0.8,1,1.8,1.2"/>
	<path fill="none" stroke="#7C7B79" stroke-width="0.5" stroke-miterlimit="10" d="M621.9,227.2c1.6-0.5,4.8-0.7,6.9-0.5"/>
	<path fill="none" stroke="#7C7B79" stroke-width="0.5" stroke-miterlimit="10" d="M596.6,241.8c-1.3,15.1,1.9,41.8,1.6,57.5"/>
	<path fill="none" stroke="#7C7B79" stroke-width="0.5" stroke-miterlimit="10" d="M638.1,239.9c1.3,16.8,1.6,41.8,3.5,57"/>
	<path fill="none" stroke="#7C7B79" stroke-width="0.5" stroke-miterlimit="10" d="M596.3,255.4c13.7,0.3,33.3-1.1,44.2-1.3"/>
	<path fill="none" stroke="#7C7B79" stroke-width="0.5" stroke-miterlimit="10" d="M596.8,261c12.2,1.2,31.3-0.6,41.3-0.5"/>
	<path fill="none" stroke="#7C7B79" stroke-width="0.5" stroke-miterlimit="10" d="M624.3,261.5c0.8,11.5,1.9,26.6,2.9,36.7"/>
	<path fill="none" stroke="#7C7B79" stroke-width="0.5" stroke-miterlimit="10" d="M628,264.2c0.7,0.5,0.3,2.2,1-0.2
		c0.5,0.4,0.4,1.2,0.9,1.6c0.4-0.4,0.4-1.1,0.8-1.5c0.3,0.2,0.8,1.1,1.3,1.2c0.5-0.3,0.8-0.8,1.3-1c0.7,1,1.4,0.5,2.2,0.5"/>
	<path fill="none" stroke="#7C7B79" stroke-width="0.5" stroke-miterlimit="10" d="M597.9,280.1c4.7-1.9,27.2-1.2,26.9-0.8"/>
	<path fill="none" stroke="#7C7B79" stroke-width="0.5" stroke-miterlimit="10" d="M623.5,262.8c-5.7,4.9-21.3,13-25,16.8"/>
	<path fill="none" stroke="#7C7B79" stroke-width="0.5" stroke-miterlimit="10" d="M625.6,278.3c-8.2-6.1-19.6-12.2-27.4-16.8"/>
	<path fill="none" stroke="#7C7B79" stroke-width="0.5" stroke-miterlimit="10" d="M588.9,312.3c-0.3,0.2,3.4-1.7,4.2-2.3
		c0,0.3-0.7,2.3-0.7,2.4c1-0.3,1.5-1.5,2.6-1.5c0.5,0.3,0.2,1.3,0.6,1.7c2.5-1,5.5-0.5,7.1-0.3"/>
	<path fill="none" stroke="#7C7B79" stroke-width="0.5" stroke-miterlimit="10" d="M608.8,312.3c2.1-0.3,3.8,0.2,5.7-1.5
		c6.3,3.7,26.6,1.8,35.1,0.1"/>
	<path fill="none" stroke="#7C7B79" stroke-width="0.5" stroke-miterlimit="10" d="M589.7,318.3c1.4,0.2,2.5,0.7,3.2,1.8
		c6.9-3.3,18.2-1.2,24.9-1.8"/>
	<path fill="none" stroke="#7C7B79" stroke-width="0.5" stroke-miterlimit="10" d="M622.7,318.7c2.6,0,3.7,0.5,5.9-1
		c3,1,6.3,0.8,10,1.7"/>
	<linearGradient id="SVGID_18_" gradientUnits="userSpaceOnUse" x1="574.8716" y1="268.5" x2="649.8716" y2="268.5">
		<stop  offset="0" style="stop-color:#FCF8EB;stop-opacity:0"/>
		<stop  offset="1" style="stop-color:#FAF6E9;stop-opacity:0.5"/>
	</linearGradient>
	<rect x="574.9" y="205.7" fill="url(#SVGID_18_)" width="75" height="125.7"/>
</g>
<g id="pencil">
	<g>
		<g opacity="0.75">
			<path fill="#828282" d="M519.6,238.1c0.4,0.4,0.3,1-0.2,1.2l-1.6,0.9c-0.5,0.3-1,0-1.2-0.5l-1.9-6.7c-0.1-0.5,0-0.6,0.4-0.2
				L519.6,238.1z"/>
			<polygon fill="#828282" points="520.6,238.9 516.6,241 515.1,235.1 516.6,234.3 			"/>
			<polygon fill="#828282" points="519.4,239.5 516.6,241 515.1,235.1 516,234.6 			"/>
			<path fill="#828282" d="M552,299.1c0.3,0.5,0.1,1.1-0.4,1.3l-2.1,1.1c-0.5,0.3-1.1,0.1-1.3-0.4l-0.9-1.6
				c-0.3-0.5-0.1-1.1,0.4-1.3l2.1-1.1c0.5-0.3,1.1-0.1,1.3,0.4L552,299.1z"/>
			
				<rect x="532" y="236.1" transform="matrix(0.8867 -0.4623 0.4623 0.8867 -64.2107 277.3804)" fill="#828282" width="3.7" height="67.1"/>
			
				<rect x="534.7" y="235.3" transform="matrix(0.8867 -0.4623 0.4623 0.8867 -63.6641 278.0024)" fill="#828282" width="1.4" height="67.1"/>
		</g>
		<g>
			<g>
				<g>
					<path fill="#333333" d="M520.6,237.1c0.4,0.4,0.3,1-0.2,1.2l-1.6,0.9c-0.5,0.3-1,0-1.2-0.5l-1.9-6.7c-0.1-0.5,0-0.6,0.4-0.2
						L520.6,237.1z"/>
				</g>
				<polygon fill="#D1AF65" points="521.6,237.9 517.6,240 516.1,234.1 517.6,233.3 				"/>
				<polygon fill="#E2C68D" points="520.4,238.5 517.6,240 516.1,234.1 517,233.6 				"/>
				<g>
					<path d="M553,298.1c0.3,0.5,0.1,1.1-0.4,1.3l-2.1,1.1c-0.5,0.3-1.1,0.1-1.3-0.4l-0.9-1.6c-0.3-0.5-0.1-1.1,0.4-1.3l2.1-1.1
						c0.5-0.3,1.1-0.1,1.3,0.4L553,298.1z"/>
				</g>
				
					<rect x="533" y="235.1" transform="matrix(0.8867 -0.4623 0.4623 0.8867 -63.6351 277.7294)" fill="#B34956" width="3.7" height="67.1"/>
				
					<rect x="535.7" y="234.3" transform="matrix(0.8867 -0.4623 0.4623 0.8867 -63.0884 278.3515)" fill="#2B2A2A" width="1.4" height="67.1"/>
			</g>
		</g>
	</g>
</g>
<g id="eraser">
	<g>
		<g opacity="0.75">
			<path fill="#828282" d="M450.9,316.8c0,1.1-0.9,2-2,2h-6.2c-1.1,0-2-0.9-2-2v-23.2c0-1.1,0.9-2,2-2h6.2c1.1,0,2,0.9,2,2V316.8z"
				/>
			<path fill="#828282" d="M451.9,316.8c0,1.1-0.9,2-2,2h-6.1c-1.1,0-2-0.9-2-2v-23.2c0-1.1,0.9-2,2-2h6.1c1.1,0,2,0.9,2,2V316.8z"
				/>
			<rect x="440.2" y="294.8" fill="#828282" width="12.1" height="22"/>
			<rect x="441.8" y="294.8" fill="#828282" width="10.5" height="22"/>
		</g>
		<g>
			<g>
				<g>
					<path fill="#D8D8D8" d="M451.9,315.8c0,1.1-0.9,2-2,2h-6.2c-1.1,0-2-0.9-2-2v-23.2c0-1.1,0.9-2,2-2h6.2c1.1,0,2,0.9,2,2V315.8z
						"/>
				</g>
				<g>
					<path fill="#FFFFFF" d="M452.9,315.8c0,1.1-0.9,2-2,2h-6.1c-1.1,0-2-0.9-2-2v-23.2c0-1.1,0.9-2,2-2h6.1c1.1,0,2,0.9,2,2V315.8z
						"/>
				</g>
				<rect x="441.2" y="293.8" fill="#7A3141" width="12.1" height="22"/>
				<rect x="442.8" y="293.8" fill="#B34956" width="10.5" height="22"/>
			</g>
		</g>
	</g>
</g>
<g id="tablet_pen">
	<g>
		<g opacity="0.75">
			<path fill="#586372" d="M356.7,219c-0.1,0.5-0.4,0.9-0.8,0.8c-0.4-0.1-0.5-0.6-0.4-1.1c0.2-0.5,0.5-0.9,0.8-0.9
				C356.6,217.9,356.7,218.4,356.7,219L356.7,219z"/>
			<path fill="#586372" d="M339.6,312.4c-0.2,0.5-0.7,0.9-1.3,0.8l-0.4-0.1c-0.5-0.1-0.9-0.6-0.9-1.2l0.2-2.9c0-0.5,0.5-0.9,1.1-0.8
				l1.4,0.3c0.5,0.1,0.9,0.6,0.7,1.1L339.6,312.4z"/>
			<path fill="#586372" d="M339.2,311.4c-0.1,0.5-0.4,0.9-0.7,0.9c-0.2,0-0.4-0.5-0.3-1.1l0.1-0.7c0.1-0.5,0.4-0.9,0.7-0.9
				c0.3,0.1,0.5,0.5,0.3,1.1L339.2,311.4z"/>
			<path fill="#586372" d="M348.8,272.9c0,0.2-0.2,0.3-0.4,0.2l-5.2-1c-0.2,0-0.3-0.2-0.2-0.4l6.9-42.5c0-0.2,0.2-0.3,0.3-0.2
				l7.6,1.5c0.2,0,0.3,0.2,0.2,0.3L348.8,272.9z"/>
			<path fill="#586372" d="M348,272.4c0,0.2-0.2,0.3-0.4,0.2l-3.6-0.7c-0.2,0-0.3-0.2-0.2-0.4l7.2-42.3c0-0.2,0.2-0.3,0.3-0.2l5.3,1
				c0.2,0,0.3,0.2,0.2,0.3L348,272.4z"/>
			<polygon fill="#586372" stroke="#586372" stroke-width="0.25" stroke-miterlimit="10" points="340.6,309.5 336.8,308.7 
				342.9,272.2 348.3,273.2 			"/>
			<polygon fill="#586372" points="339.5,309.1 338.2,308.8 344.8,272.7 346.7,273.1 			"/>
			<path fill="#586372" d="M357.5,227.6c0,0.2-0.1,0.3-0.3,0.2l-5.5-1c-0.2,0-0.2-0.2-0.2-0.3l3.7-7.3c0.1-0.1,0.3-0.2,0.4-0.2
				l0.8,0.2c0.2,0,0.3,0.2,0.3,0.4L357.5,227.6z"/>
			<path fill="#586372" d="M356,227.3c0,0.2-0.1,0.3-0.3,0.2l-2.5-0.5c-0.2,0-0.3-0.2-0.2-0.3l2.6-7.4c0.1-0.2,0.2-0.3,0.4-0.2
				l0.1,0c0.2,0,0.3,0.2,0.3,0.4L356,227.3z"/>
			<path fill="#586372" d="M351.8,248.4c-0.1,0.3-0.3,0.4-0.6,0.4l-1.6-0.3c-0.3-0.1-0.4-0.3-0.4-0.6l2.4-12.4
				c0.1-0.3,0.3-0.4,0.6-0.4l1.6,0.3c0.3,0.1,0.4,0.3,0.4,0.6L351.8,248.4z"/>
			<path fill="#586372" d="M351.6,248c-0.1,0.3-0.3,0.4-0.6,0.4l-1.2-0.2c-0.3-0.1-0.4-0.3-0.4-0.6l2.2-11.7
				c0.1-0.3,0.3-0.4,0.6-0.4l1.2,0.2c0.3,0.1,0.4,0.3,0.4,0.6L351.6,248z"/>
			<path fill="#586372" d="M351.6,247.7c0,0.2-0.2,0.3-0.4,0.2l-1.3-0.3c-0.2,0-0.3-0.2-0.2-0.4l1.6-8.6c0-0.2,0.2-0.3,0.4-0.2
				l1.3,0.3c0.2,0,0.3,0.2,0.2,0.4L351.6,247.7z"/>
			<path fill="#586372" d="M353.2,238.8c0,0.2-0.2,0.3-0.4,0.2l-1.3-0.3c-0.2,0-0.3-0.2-0.2-0.4l0.5-2.7c0-0.2,0.2-0.3,0.4-0.2
				l1.3,0.3c0.2,0,0.3,0.2,0.2,0.4L353.2,238.8z"/>
			<polygon fill="#586372" points="358,230.7 349.9,229.2 351.2,226.4 357.8,227.7 			"/>
			<polygon fill="#586372" points="356.8,230.4 351.2,229.3 352.4,226.7 356.7,227.5 			"/>
		</g>
		<g>
			<g>
				<g>
					<path fill="#282828" d="M355.7,218c-0.1,0.5-0.4,0.9-0.8,0.8c-0.4-0.1-0.5-0.6-0.4-1.1c0.2-0.5,0.5-0.9,0.8-0.9
						C355.6,216.9,355.7,217.4,355.7,218L355.7,218z"/>
				</g>
				<g>
					<path fill="#4C4C4C" d="M338.6,311.4c-0.2,0.5-0.7,0.9-1.3,0.8l-0.4-0.1c-0.5-0.1-0.9-0.6-0.9-1.2l0.2-2.9
						c0-0.5,0.5-0.9,1.1-0.8l1.4,0.3c0.5,0.1,0.9,0.6,0.7,1.1L338.6,311.4z"/>
				</g>
				<g>
					<path fill="#A8A8A8" d="M338.2,310.4c-0.1,0.5-0.4,0.9-0.7,0.9c-0.2,0-0.4-0.5-0.3-1.1l0.1-0.7c0.1-0.5,0.4-0.9,0.7-0.9
						c0.3,0.1,0.5,0.5,0.3,1.1L338.2,310.4z"/>
				</g>
				<g>
					<path fill="#424242" d="M347.8,271.9c0,0.2-0.2,0.3-0.4,0.2l-5.2-1c-0.2,0-0.3-0.2-0.2-0.4l6.9-42.5c0-0.2,0.2-0.3,0.3-0.2
						l7.6,1.5c0.2,0,0.3,0.2,0.2,0.3L347.8,271.9z"/>
				</g>
				<g>
					<path fill="#565656" d="M347,271.4c0,0.2-0.2,0.3-0.4,0.2l-3.6-0.7c-0.2,0-0.3-0.2-0.2-0.4l7.2-42.3c0-0.2,0.2-0.3,0.3-0.2
						l5.3,1c0.2,0,0.3,0.2,0.2,0.3L347,271.4z"/>
				</g>
				<polygon fill="#AAAAAA" stroke="#7F7F7F" stroke-width="0.25" stroke-miterlimit="10" points="339.6,308.5 335.8,307.7 
					341.9,271.2 347.3,272.2 				"/>
				<polygon fill="#DDDDDD" points="338.5,308.1 337.2,307.8 343.8,271.7 345.7,272.1 				"/>
				<g>
					<path fill="#C6C6C6" d="M356.5,226.6c0,0.2-0.1,0.3-0.3,0.2l-5.5-1c-0.2,0-0.2-0.2-0.2-0.3l3.7-7.3c0.1-0.1,0.3-0.2,0.4-0.2
						l0.8,0.2c0.2,0,0.3,0.2,0.3,0.4L356.5,226.6z"/>
				</g>
				<g>
					<path fill="#EDEDED" d="M355,226.3c0,0.2-0.1,0.3-0.3,0.2l-2.5-0.5c-0.2,0-0.3-0.2-0.2-0.3l2.6-7.4c0.1-0.2,0.2-0.3,0.4-0.2
						l0.1,0c0.2,0,0.3,0.2,0.3,0.4L355,226.3z"/>
				</g>
				<g>
					<path fill="#424242" d="M350.8,247.4c-0.1,0.3-0.3,0.4-0.6,0.4l-1.6-0.3c-0.3-0.1-0.4-0.3-0.4-0.6l2.4-12.4
						c0.1-0.3,0.3-0.4,0.6-0.4l1.6,0.3c0.3,0.1,0.4,0.3,0.4,0.6L350.8,247.4z"/>
				</g>
				<g>
					<path fill="#686868" d="M350.6,247c-0.1,0.3-0.3,0.4-0.6,0.4l-1.2-0.2c-0.3-0.1-0.4-0.3-0.4-0.6l2.2-11.7
						c0.1-0.3,0.3-0.4,0.6-0.4l1.2,0.2c0.3,0.1,0.4,0.3,0.4,0.6L350.6,247z"/>
				</g>
				<g>
					<path fill="#A5A5A5" d="M350.6,246.7c0,0.2-0.2,0.3-0.4,0.2l-1.3-0.3c-0.2,0-0.3-0.2-0.2-0.4l1.6-8.6c0-0.2,0.2-0.3,0.4-0.2
						l1.3,0.3c0.2,0,0.3,0.2,0.2,0.4L350.6,246.7z"/>
				</g>
				<g>
					<path fill="#898989" d="M352.2,237.8c0,0.2-0.2,0.3-0.4,0.2l-1.3-0.3c-0.2,0-0.3-0.2-0.2-0.4l0.5-2.7c0-0.2,0.2-0.3,0.4-0.2
						l1.3,0.3c0.2,0,0.3,0.2,0.2,0.4L352.2,237.8z"/>
				</g>
				<polygon fill="#303030" points="357,229.7 348.9,228.2 350.2,225.4 356.8,226.7 				"/>
				<polygon fill="#3F3F3F" points="355.8,229.4 350.2,228.3 351.4,225.7 355.7,226.5 				"/>
			</g>
		</g>
	</g>
</g>
</svg>
